M48
;Layer_Color=9474304
;FILE_FORMAT=4:4
METRIC,LZ
;TYPE=PLATED
T01F00S00C0.3048
T02F00S00C1.0200
%
T01
X-0009652Y-0006096
X-0003556Y-0004572
X0000508Y-0001524
X000508Y-0003048
X00080264Y-0003111
X0006604Y-0005588
X0008636Y-000762
X0002032Y-0009144
X-0000508
X0003048Y-0011176
X-00009504Y00060556
X-0001016Y00072644
X-00021188Y0006604
X-0002032Y0008636
X-0006604Y0009144
Y0004572
X-00094794Y00070104
X00007565Y00117602
X0003556Y0011684
Y00108056
T02
X-00093003Y-00021698
Y00003702
Y00029102
M30
