G04*
G04 #@! TF.GenerationSoftware,Altium Limited,Altium Designer,25.8.1 (18)*
G04*
G04 Layer_Physical_Order=1*
G04 Layer_Color=255*
%FSLAX44Y44*%
%MOMM*%
G71*
G04*
G04 #@! TF.SameCoordinates,72622D7D-59BA-477E-922F-BDBC8D2A5B01*
G04*
G04*
G04 #@! TF.FilePolarity,Positive*
G04*
G01*
G75*
%ADD17C,0.2540*%
%ADD18R,0.6400X0.8900*%
G04:AMPARAMS|DCode=19|XSize=2.03mm|YSize=0.58mm|CornerRadius=0.0435mm|HoleSize=0mm|Usage=FLASHONLY|Rotation=0.000|XOffset=0mm|YOffset=0mm|HoleType=Round|Shape=RoundedRectangle|*
%AMROUNDEDRECTD19*
21,1,2.0300,0.4930,0,0,0.0*
21,1,1.9430,0.5800,0,0,0.0*
1,1,0.0870,0.9715,-0.2465*
1,1,0.0870,-0.9715,-0.2465*
1,1,0.0870,-0.9715,0.2465*
1,1,0.0870,0.9715,0.2465*
%
%ADD19ROUNDEDRECTD19*%
G04:AMPARAMS|DCode=20|XSize=1mm|YSize=1mm|CornerRadius=0.5mm|HoleSize=0mm|Usage=FLASHONLY|Rotation=120.000|XOffset=0mm|YOffset=0mm|HoleType=Round|Shape=RoundedRectangle|*
%AMROUNDEDRECTD20*
21,1,1.0000,0.0000,0,0,120.0*
21,1,0.0000,1.0000,0,0,120.0*
1,1,1.0000,0.0000,0.0000*
1,1,1.0000,0.0000,0.0000*
1,1,1.0000,0.0000,0.0000*
1,1,1.0000,0.0000,0.0000*
%
%ADD20ROUNDEDRECTD20*%
G04:AMPARAMS|DCode=21|XSize=1mm|YSize=1mm|CornerRadius=0.5mm|HoleSize=0mm|Usage=FLASHONLY|Rotation=0.000|XOffset=0mm|YOffset=0mm|HoleType=Round|Shape=RoundedRectangle|*
%AMROUNDEDRECTD21*
21,1,1.0000,0.0000,0,0,0.0*
21,1,0.0000,1.0000,0,0,0.0*
1,1,1.0000,0.0000,0.0000*
1,1,1.0000,0.0000,0.0000*
1,1,1.0000,0.0000,0.0000*
1,1,1.0000,0.0000,0.0000*
%
%ADD21ROUNDEDRECTD21*%
G04:AMPARAMS|DCode=22|XSize=1mm|YSize=1mm|CornerRadius=0.5mm|HoleSize=0mm|Usage=FLASHONLY|Rotation=60.000|XOffset=0mm|YOffset=0mm|HoleType=Round|Shape=RoundedRectangle|*
%AMROUNDEDRECTD22*
21,1,1.0000,0.0000,0,0,60.0*
21,1,0.0000,1.0000,0,0,60.0*
1,1,1.0000,0.0000,0.0000*
1,1,1.0000,0.0000,0.0000*
1,1,1.0000,0.0000,0.0000*
1,1,1.0000,0.0000,0.0000*
%
%ADD22ROUNDEDRECTD22*%
%ADD23R,0.9300X0.8700*%
%ADD24R,0.8000X0.8000*%
%ADD25R,0.4000X0.3800*%
%ADD26R,0.8000X0.9500*%
%ADD35C,1.5700*%
%ADD36R,1.5700X1.5700*%
%ADD38C,0.6096*%
G36*
X86890Y150530D02*
X96320Y134242D01*
X94901Y133371D01*
X91798Y132162D01*
X88529Y131525D01*
X85200Y131480D01*
X81915Y132029D01*
X78781Y133154D01*
X75897Y134819D01*
X73355Y136971D01*
X71238Y139541D01*
X69612Y142448D01*
X68529Y145597D01*
X68025Y148888D01*
X68069Y150553D01*
Y150553D01*
X86890Y150530D01*
D02*
G37*
G36*
X-68025Y148888D02*
X-68529Y145597D01*
X-69612Y142448D01*
X-71238Y139541D01*
X-73355Y136971D01*
X-75897Y134819D01*
X-78781Y133154D01*
X-81915Y132029D01*
X-85200Y131480D01*
X-88529Y131525D01*
X-91798Y132162D01*
X-94901Y133371D01*
X-96320Y134242D01*
Y134242D01*
X-86890Y150530D01*
X-68069Y150553D01*
X-68025Y148888D01*
D02*
G37*
G36*
X-53845Y110316D02*
X-53662Y109728D01*
X-53648Y108363D01*
X-53833Y107675D01*
X-65497Y96012D01*
X-66949D01*
X-68630Y95316D01*
X-69916Y94030D01*
X-70612Y92349D01*
Y90531D01*
X-69916Y88850D01*
X-68889Y87823D01*
Y49337D01*
X-69916Y48310D01*
X-70612Y46629D01*
Y44811D01*
X-69916Y43130D01*
X-68630Y41844D01*
X-66949Y41148D01*
X-65131D01*
X-63450Y41844D01*
X-62164Y43130D01*
X-61468Y44811D01*
Y46629D01*
X-62164Y48310D01*
X-63191Y49337D01*
Y81745D01*
X-61159Y82831D01*
X-61140Y82818D01*
X-60050Y82601D01*
X-60050Y82601D01*
X-52352D01*
Y81355D01*
X-52200Y80591D01*
X-52052Y80369D01*
X-52395Y80140D01*
X-52395Y80140D01*
X-55598Y76937D01*
X-56216Y76013D01*
X-56433Y74922D01*
X-56433Y74922D01*
Y64114D01*
X-56433Y64114D01*
X-56216Y63024D01*
X-55598Y62100D01*
X-52352Y58854D01*
Y55955D01*
X-52200Y55191D01*
X-51767Y54543D01*
X-51119Y54110D01*
X-50355Y53958D01*
X-30925D01*
X-30161Y54110D01*
X-29513Y54543D01*
X-29080Y55191D01*
X-28928Y55955D01*
Y60885D01*
X-29080Y61649D01*
X-29513Y62297D01*
X-30161Y62730D01*
X-30925Y62882D01*
X-48324D01*
X-50067Y64626D01*
X-49225Y66658D01*
X-30925D01*
X-30161Y66810D01*
X-29513Y67243D01*
X-29230Y67666D01*
X-27899Y67862D01*
X-27018Y67841D01*
X-25760Y66583D01*
Y65131D01*
X-25064Y63450D01*
X-23778Y62164D01*
X-22098Y61468D01*
X-20279D01*
X-18598Y62164D01*
X-17312Y63450D01*
X-17309Y63459D01*
X-15394Y63521D01*
X-14055Y61517D01*
X-14076Y61465D01*
Y59647D01*
X-13380Y57966D01*
X-12094Y56680D01*
X-10414Y55984D01*
X-8595D01*
X-8325Y56096D01*
X-7464Y55520D01*
X-6374Y55303D01*
X-4423D01*
X-4400Y55191D01*
X-3967Y54543D01*
X-3319Y54110D01*
X-2555Y53958D01*
X16575D01*
X17104Y53246D01*
X17502Y52010D01*
X14635Y49144D01*
X11716D01*
Y36676D01*
X18764D01*
Y37251D01*
X21876D01*
Y36676D01*
X28924D01*
Y37251D01*
X63523D01*
Y-51974D01*
X63450Y-52004D01*
X62423Y-53031D01*
X55880D01*
X55880Y-53031D01*
X54790Y-53248D01*
X53866Y-53866D01*
X20863Y-86868D01*
X19411D01*
X17730Y-87564D01*
X16703Y-88591D01*
X-1463D01*
X-2231Y-87823D01*
Y-76124D01*
X344D01*
Y-67605D01*
X20414Y-47534D01*
X20414Y-47534D01*
X21032Y-46610D01*
X21249Y-45520D01*
X21249Y-45520D01*
Y-21214D01*
X23124D01*
Y-14008D01*
X25001Y-13230D01*
X27676Y-15905D01*
Y-21214D01*
X34055D01*
X34330Y-21269D01*
X38501D01*
X46396Y-29164D01*
X46228Y-29571D01*
Y-31389D01*
X46924Y-33070D01*
X48210Y-34356D01*
X49891Y-35052D01*
X51709D01*
X53390Y-34356D01*
X54676Y-33070D01*
X55372Y-31389D01*
Y-29571D01*
X54676Y-27890D01*
X53390Y-26604D01*
X51709Y-25908D01*
X51197D01*
X41695Y-16406D01*
X40771Y-15788D01*
X39681Y-15571D01*
X39680Y-15571D01*
X37124D01*
Y-9266D01*
X29095D01*
X22894Y-3066D01*
X21970Y-2448D01*
X20880Y-2231D01*
X20880Y-2231D01*
X-76386D01*
X-77476Y-2448D01*
X-78400Y-3066D01*
X-78400Y-3066D01*
X-88695Y-13361D01*
X-89385Y-12962D01*
X-91769Y-12324D01*
X-94238D01*
X-96622Y-12962D01*
X-98759Y-14197D01*
X-100505Y-15942D01*
X-101739Y-18079D01*
X-102377Y-20464D01*
Y-22932D01*
X-102045Y-24174D01*
X-103866Y-25226D01*
X-131107Y2014D01*
X-132031Y2632D01*
X-133121Y2849D01*
X-133121Y2849D01*
X-153212D01*
X-153645Y5236D01*
X-153728Y5366D01*
X-153723Y5520D01*
X-154890Y8639D01*
X-154995Y8752D01*
X-155017Y8905D01*
X-156721Y11766D01*
X-156845Y11859D01*
X-156894Y12005D01*
X-159080Y14517D01*
X-159219Y14586D01*
X-159293Y14721D01*
X-161891Y16804D01*
X-161738Y18769D01*
X-144770Y48159D01*
X-142867Y48616D01*
X-138804Y46978D01*
X-138666Y46980D01*
X-138554Y46900D01*
X-134282Y45926D01*
X-134147Y45949D01*
X-134023Y45888D01*
X-129651Y45601D01*
X-129521Y45646D01*
X-129389Y45605D01*
X-125027Y46014D01*
X-124906Y46079D01*
X-124769Y46059D01*
X-120527Y47153D01*
X-120417Y47236D01*
X-120279Y47239D01*
X-116263Y48990D01*
X-116168Y49089D01*
X-116032Y49114D01*
X-112344Y51479D01*
X-112266Y51592D01*
X-112136Y51637D01*
X-108868Y54556D01*
X-108808Y54680D01*
X-108687Y54745D01*
X-105923Y58144D01*
X-105884Y58276D01*
X-105774Y58360D01*
X-103582Y62154D01*
X-103564Y62290D01*
X-103470Y62390D01*
X-102001Y66234D01*
X-101218Y67017D01*
X-98172D01*
X-97383Y66228D01*
X-95703Y65532D01*
X-93884D01*
X-92204Y66228D01*
X-90918Y67514D01*
X-90222Y69195D01*
Y71013D01*
X-90918Y72694D01*
X-92204Y73980D01*
X-93884Y74676D01*
X-95703D01*
X-97383Y73980D01*
X-97712Y73651D01*
X-98935Y73664D01*
X-100702Y75533D01*
X-100695Y75659D01*
X-100742Y75788D01*
X-100704Y75920D01*
X-101192Y80274D01*
X-101259Y80395D01*
X-101242Y80532D01*
X-102413Y84754D01*
X-102498Y84862D01*
X-102503Y84999D01*
X-104327Y88983D01*
X-104428Y89077D01*
X-104455Y89212D01*
X-106887Y92856D01*
X-107001Y92933D01*
X-107049Y93062D01*
X-110026Y96276D01*
X-110152Y96333D01*
X-110219Y96453D01*
X-113668Y99155D01*
X-114246Y101029D01*
X-97116Y130699D01*
X-95500Y131834D01*
X-92397Y130625D01*
X-92242Y130629D01*
X-92114Y130543D01*
X-88845Y129906D01*
X-88694Y129937D01*
X-88552Y129876D01*
X-85222Y129831D01*
X-85078Y129888D01*
X-84928Y129853D01*
X-81643Y130402D01*
X-81512Y130484D01*
X-81358Y130477D01*
X-78223Y131601D01*
X-78109Y131705D01*
X-77956Y131726D01*
X-76243Y132715D01*
X-53845Y110316D01*
D02*
G37*
G36*
X27480Y150538D02*
X27520Y148348D01*
X26904Y144010D01*
X25609Y139824D01*
X23669Y135896D01*
X21131Y132324D01*
X18060Y129199D01*
X14534Y126599D01*
X10640Y124590D01*
X6478Y123222D01*
X2152Y122530D01*
X-2230Y122532D01*
X-6556Y123226D01*
X-10717Y124597D01*
X-14609Y126608D01*
X-18134Y129210D01*
X-21203Y132337D01*
X-23738Y135911D01*
X-25676Y139840D01*
X-26968Y144027D01*
X-27581Y148365D01*
X-27541Y150555D01*
X-27541Y150555D01*
X27480Y150538D01*
D02*
G37*
G36*
X66394Y148638D02*
X66898Y145347D01*
X66979Y145215D01*
X66969Y145061D01*
X67722Y142871D01*
X44540Y119689D01*
X40428D01*
X40297Y120005D01*
X38725Y121577D01*
X36830Y122362D01*
Y116840D01*
X35560D01*
Y115570D01*
X29729D01*
X28251Y114609D01*
X13474D01*
X12116Y116641D01*
X12137Y116693D01*
Y118511D01*
X11441Y120192D01*
X10763Y120870D01*
X11049Y122988D01*
X11155Y123023D01*
X11260Y123112D01*
X11397Y123124D01*
X15290Y125133D01*
X15379Y125238D01*
X15513Y125271D01*
X19039Y127871D01*
X19110Y127989D01*
X19237Y128043D01*
X22308Y131168D01*
X22359Y131296D01*
X22476Y131369D01*
X25014Y134940D01*
X25044Y135075D01*
X25148Y135165D01*
X27088Y139093D01*
X27097Y139231D01*
X27185Y139337D01*
X28480Y143522D01*
X28467Y143659D01*
X28537Y143778D01*
X29153Y148116D01*
X30558Y149458D01*
X64593D01*
X66394Y148638D01*
D02*
G37*
G36*
X-29215Y148134D02*
X-28602Y143796D01*
X-28532Y143677D01*
X-28544Y143540D01*
X-27253Y139354D01*
X-27165Y139248D01*
X-27156Y139110D01*
X-25218Y135181D01*
X-25114Y135090D01*
X-25084Y134956D01*
X-22548Y131383D01*
X-22432Y131310D01*
X-22380Y131182D01*
X-19312Y128055D01*
X-19185Y128001D01*
X-19114Y127883D01*
X-15589Y125281D01*
X-15455Y125248D01*
X-15367Y125143D01*
X-11474Y123131D01*
X-11337Y123120D01*
X-11233Y123030D01*
X-7071Y121659D01*
X-6934Y121670D01*
X-6817Y121597D01*
X-2491Y120903D01*
X-2357Y120935D01*
X-2230Y120882D01*
X1775Y120881D01*
X2838Y119832D01*
X3182Y118967D01*
X2993Y118511D01*
Y116693D01*
X3015Y116641D01*
X1657Y114609D01*
X-50080D01*
X-71771Y136300D01*
X-69964Y138492D01*
X-69919Y138640D01*
X-69798Y138736D01*
X-68172Y141642D01*
X-68154Y141795D01*
X-68052Y141911D01*
X-66969Y145061D01*
X-66979Y145215D01*
X-66898Y145347D01*
X-66394Y148638D01*
X-64593Y149458D01*
X-30634D01*
X-29215Y148134D01*
D02*
G37*
G36*
X-4552Y98985D02*
Y94055D01*
X-4400Y93291D01*
X-3967Y92643D01*
X-3319Y92210D01*
X-2555Y92058D01*
X16875D01*
X17639Y92210D01*
X18287Y92643D01*
X18720Y93291D01*
X18796Y93671D01*
X23920D01*
X29386Y88205D01*
Y80486D01*
X41734D01*
Y83511D01*
X44626D01*
Y80486D01*
X52945D01*
X54765Y78666D01*
X53924Y76634D01*
X44626D01*
Y69850D01*
X43766Y69203D01*
X41734Y70218D01*
Y76634D01*
X29386D01*
Y74144D01*
X24911D01*
X18915Y80140D01*
X18572Y80369D01*
X18720Y80591D01*
X18872Y81355D01*
Y86285D01*
X18720Y87049D01*
X18287Y87697D01*
X17639Y88130D01*
X16875Y88282D01*
X-2555D01*
X-3319Y88130D01*
X-3967Y87697D01*
X-4400Y87049D01*
X-4552Y86285D01*
Y85470D01*
X-6430Y84692D01*
X-10112Y88374D01*
X-11036Y88992D01*
X-12126Y89209D01*
X-12127Y89209D01*
X-16703D01*
X-17730Y90236D01*
X-19411Y90932D01*
X-21229D01*
X-22910Y90236D01*
X-24196Y88950D01*
X-24892Y87269D01*
Y85817D01*
X-27050Y83658D01*
X-28928Y84436D01*
Y86285D01*
X-29080Y87049D01*
X-29513Y87697D01*
X-30161Y88130D01*
X-30925Y88282D01*
X-42188D01*
X-42270Y88299D01*
X-42270Y88299D01*
X-58870D01*
X-61468Y90897D01*
Y91983D01*
X-54327Y99125D01*
X-52352Y98225D01*
Y94055D01*
X-52200Y93291D01*
X-51767Y92643D01*
X-51119Y92210D01*
X-50355Y92058D01*
X-30925D01*
X-30161Y92210D01*
X-29513Y92643D01*
X-29080Y93291D01*
X-28928Y94055D01*
Y98068D01*
X-28911Y98150D01*
Y99365D01*
X-4864D01*
X-4552Y98985D01*
D02*
G37*
G36*
X54260Y94111D02*
X53482Y92234D01*
X44626D01*
Y89209D01*
X41734D01*
Y92234D01*
X33415D01*
X28315Y97333D01*
X29157Y99365D01*
X49006D01*
X54260Y94111D01*
D02*
G37*
G36*
X51971Y63009D02*
X42611Y53649D01*
X20320D01*
X20105Y53606D01*
X19253Y54581D01*
X18757Y55374D01*
X18872Y55955D01*
Y60767D01*
X43356D01*
X43356Y60767D01*
X44446Y60984D01*
X45370Y61602D01*
X48655Y64886D01*
X51194D01*
X51971Y63009D01*
D02*
G37*
G36*
X144082Y51421D02*
X142205Y50292D01*
X138140Y48656D01*
X133868Y47684D01*
X129496Y47400D01*
X125134Y47812D01*
X120892Y48909D01*
X116877Y50663D01*
X113190Y53031D01*
X109925Y55951D01*
X107162Y59352D01*
X104973Y63147D01*
X103411Y67241D01*
X102517Y71530D01*
X102313Y75907D01*
X102804Y80260D01*
X103978Y84482D01*
X105805Y88464D01*
X108239Y92107D01*
X111219Y95319D01*
X114669Y98019D01*
X116586Y99079D01*
X116586D01*
X144082Y51421D01*
D02*
G37*
G36*
X-114685Y97857D02*
X-111236Y95154D01*
X-108259Y91941D01*
X-105827Y88296D01*
X-104003Y84313D01*
X-102832Y80091D01*
X-102343Y75737D01*
X-102550Y71360D01*
X-103447Y67071D01*
X-105011Y62979D01*
X-107203Y59185D01*
X-109967Y55786D01*
X-113235Y52867D01*
X-116923Y50502D01*
X-120939Y48751D01*
X-125181Y47656D01*
X-129544Y47248D01*
X-133916Y47534D01*
X-138187Y48508D01*
X-142251Y50146D01*
X-144127Y51277D01*
X-144127Y51277D01*
X-116602Y98918D01*
X-114685Y97857D01*
D02*
G37*
G36*
X71575Y136538D02*
X72082Y135922D01*
X72218Y135850D01*
X72289Y135712D01*
X74831Y133560D01*
X74978Y133513D01*
X75072Y133391D01*
X77956Y131726D01*
X78109Y131705D01*
X78223Y131601D01*
X81358Y130477D01*
X81512Y130484D01*
X81643Y130402D01*
X84928Y129853D01*
X85078Y129888D01*
X85222Y129831D01*
X88552Y129876D01*
X88694Y129937D01*
X88845Y129906D01*
X92114Y130543D01*
X92242Y130629D01*
X92397Y130625D01*
X95500Y131834D01*
X97116Y130699D01*
X114146Y101202D01*
X113652Y99318D01*
X110202Y96618D01*
X110134Y96498D01*
X110009Y96441D01*
X107029Y93229D01*
X106982Y93100D01*
X106867Y93023D01*
X104433Y89380D01*
X104406Y89245D01*
X104306Y89152D01*
X102479Y85169D01*
X102474Y85032D01*
X102389Y84923D01*
X101215Y80702D01*
X101232Y80566D01*
X101165Y80445D01*
X100674Y76091D01*
X100712Y75959D01*
X100666Y75830D01*
X100870Y71453D01*
X100928Y71329D01*
X100903Y71193D01*
X101797Y66904D01*
X101874Y66791D01*
X101870Y66653D01*
X103432Y62559D01*
X103526Y62459D01*
X103544Y62323D01*
X103716Y62025D01*
X84346Y42654D01*
X83728Y41730D01*
X83511Y40640D01*
X83511Y40640D01*
Y-21658D01*
X78250Y-26919D01*
X78179Y-27025D01*
X77674Y-27234D01*
X76388Y-28520D01*
X75692Y-30201D01*
Y-32020D01*
X76388Y-33700D01*
X77674Y-34986D01*
X79355Y-35682D01*
X81173D01*
X82854Y-34986D01*
X84140Y-33700D01*
X84836Y-32020D01*
Y-30201D01*
X84306Y-28921D01*
X88374Y-24852D01*
X88374Y-24852D01*
X88992Y-23928D01*
X89209Y-22838D01*
Y39460D01*
X105786Y56037D01*
X107815Y55932D01*
X108644Y54911D01*
X108765Y54846D01*
X108825Y54722D01*
X112091Y51801D01*
X112220Y51755D01*
X112299Y51642D01*
X115986Y49275D01*
X116121Y49251D01*
X116217Y49152D01*
X120232Y47397D01*
X120369Y47395D01*
X120479Y47312D01*
X124721Y46215D01*
X124857Y46234D01*
X124979Y46170D01*
X129341Y45758D01*
X129472Y45799D01*
X129602Y45754D01*
X133975Y46038D01*
X134098Y46099D01*
X134234Y46076D01*
X138506Y47048D01*
X138618Y47127D01*
X138756Y47126D01*
X142820Y48761D01*
X144708Y48267D01*
X161738Y18769D01*
X161891Y16804D01*
X159293Y14721D01*
X159218Y14586D01*
X159080Y14517D01*
X156894Y12005D01*
X156845Y11859D01*
X156721Y11766D01*
X155017Y8905D01*
X154995Y8752D01*
X154890Y8639D01*
X153723Y5520D01*
X153728Y5366D01*
X153644Y5236D01*
X153212Y2849D01*
X142240D01*
X142240Y2849D01*
X142240Y2849D01*
X137160D01*
X137160Y2849D01*
X136070Y2632D01*
X135146Y2014D01*
X135146Y2014D01*
X86360Y-46771D01*
X73332Y-33743D01*
Y93411D01*
X73332Y93412D01*
X73115Y94502D01*
X72498Y95426D01*
X54202Y113721D01*
X53278Y114339D01*
X52188Y114556D01*
X52188Y114555D01*
X50338D01*
X49496Y116587D01*
X69545Y136636D01*
X71575Y136538D01*
D02*
G37*
G36*
X13676Y-9266D02*
Y-12391D01*
X8697D01*
X7670Y-11364D01*
X5989Y-10668D01*
X4171D01*
X2490Y-11364D01*
X1204Y-12650D01*
X508Y-14331D01*
Y-16149D01*
X1204Y-17830D01*
X2490Y-19116D01*
X4171Y-19812D01*
X5989D01*
X7670Y-19116D01*
X8697Y-18089D01*
X13676D01*
Y-21214D01*
X15551D01*
Y-44340D01*
X4741Y-55150D01*
X2864Y-54372D01*
Y-46546D01*
X-4155D01*
X-7440Y-43262D01*
X-8364Y-42644D01*
X-9454Y-42427D01*
X-9454Y-42427D01*
X-32387D01*
X-32970Y-41844D01*
X-34651Y-41148D01*
X-36469D01*
X-38150Y-41844D01*
X-39436Y-43130D01*
X-40132Y-44811D01*
Y-46629D01*
X-39436Y-48310D01*
X-38150Y-49596D01*
X-36469Y-50292D01*
X-34651D01*
X-32970Y-49596D01*
X-31684Y-48310D01*
X-31607Y-48125D01*
X-23184D01*
Y-57594D01*
X-20509D01*
Y-63576D01*
X-23204D01*
Y-76124D01*
X-12156D01*
Y-76124D01*
X-10704D01*
Y-76124D01*
X-7929D01*
Y-87823D01*
X-8956Y-88850D01*
X-9652Y-90531D01*
Y-92349D01*
X-8956Y-94030D01*
X-7670Y-95316D01*
X-5989Y-96012D01*
X-4171D01*
X-2490Y-95316D01*
X-1463Y-94289D01*
X16703D01*
X17730Y-95316D01*
X19411Y-96012D01*
X21229D01*
X22910Y-95316D01*
X24196Y-94030D01*
X24892Y-92349D01*
Y-90897D01*
X57060Y-58729D01*
X62423D01*
X63450Y-59756D01*
X65131Y-60452D01*
X66949D01*
X68630Y-59756D01*
X69916Y-58470D01*
X70612Y-56789D01*
Y-54971D01*
X69916Y-53290D01*
X69221Y-52595D01*
Y-40344D01*
X71098Y-39567D01*
X83294Y-51762D01*
X83294Y-51762D01*
X83462Y-51875D01*
X83911Y-53981D01*
X83836Y-54376D01*
X39690Y-98521D01*
X-35330D01*
X-36420Y-98738D01*
X-37345Y-99356D01*
X-37345Y-99356D01*
X-73054Y-135065D01*
X-74831Y-133560D01*
X-74978Y-133513D01*
X-75072Y-133391D01*
X-77956Y-131726D01*
X-78109Y-131705D01*
X-78223Y-131602D01*
X-81358Y-130477D01*
X-83064Y-129252D01*
Y-47208D01*
X-83064Y-47208D01*
X-83281Y-46118D01*
X-83899Y-45194D01*
X-83899Y-45194D01*
X-96532Y-32561D01*
X-95480Y-30739D01*
X-94238Y-31072D01*
X-91769D01*
X-89385Y-30433D01*
X-87248Y-29199D01*
X-85502Y-27453D01*
X-84268Y-25316D01*
X-83629Y-22932D01*
Y-20464D01*
X-84268Y-18079D01*
X-84667Y-17390D01*
X-75206Y-7929D01*
X12198D01*
X13676Y-9266D01*
D02*
G37*
G36*
X173778Y0D02*
X164387Y-16311D01*
X162923Y-15517D01*
X160324Y-13434D01*
X158138Y-10922D01*
X156435Y-8061D01*
X155268Y-4942D01*
X154675Y-1665D01*
Y1665D01*
X155268Y4942D01*
X156435Y8061D01*
X158138Y10922D01*
X160324Y13434D01*
X162923Y15517D01*
X164387Y16310D01*
X164387D01*
X173778Y0D01*
D02*
G37*
G36*
X-162923Y15517D02*
X-160324Y13434D01*
X-158139Y10922D01*
X-156435Y8061D01*
X-155268Y4942D01*
X-154675Y1665D01*
Y-1665D01*
X-155268Y-4942D01*
X-156435Y-8061D01*
X-158139Y-10922D01*
X-160324Y-13434D01*
X-162923Y-15517D01*
X-164387Y-16311D01*
Y-16310D01*
X-173778Y0D01*
X-164387Y16310D01*
X-162923Y15517D01*
D02*
G37*
G36*
X153644Y-5236D02*
X153728Y-5366D01*
X153723Y-5520D01*
X154890Y-8639D01*
X154995Y-8752D01*
X155017Y-8905D01*
X156721Y-11766D01*
X156845Y-11859D01*
X156894Y-12005D01*
X159080Y-14517D01*
X159218Y-14586D01*
X159293Y-14722D01*
X161891Y-16804D01*
X161738Y-18769D01*
X144721Y-48245D01*
X142867Y-48817D01*
X138804Y-47179D01*
X138666Y-47180D01*
X138554Y-47101D01*
X134282Y-46126D01*
X134146Y-46149D01*
X134023Y-46088D01*
X129651Y-45802D01*
X129521Y-45846D01*
X129389Y-45806D01*
X125027Y-46215D01*
X124905Y-46279D01*
X124769Y-46260D01*
X120527Y-47354D01*
X120416Y-47436D01*
X120279Y-47439D01*
X116263Y-49191D01*
X116167Y-49290D01*
X116032Y-49314D01*
X112344Y-51679D01*
X112265Y-51792D01*
X112135Y-51838D01*
X108868Y-54756D01*
X108808Y-54880D01*
X108687Y-54946D01*
X105922Y-58345D01*
X105883Y-58477D01*
X105774Y-58560D01*
X103582Y-62354D01*
X103564Y-62491D01*
X103469Y-62590D01*
X101905Y-66683D01*
X101909Y-66821D01*
X101832Y-66934D01*
X100935Y-71223D01*
X100961Y-71358D01*
X100902Y-71483D01*
X100814Y-73351D01*
X89977D01*
X88950Y-72324D01*
X87269Y-71628D01*
X85451D01*
X83770Y-72324D01*
X82484Y-73610D01*
X81788Y-75291D01*
Y-77109D01*
X82484Y-78790D01*
X83770Y-80076D01*
X85451Y-80772D01*
X87269D01*
X88950Y-80076D01*
X89977Y-79049D01*
X99977D01*
X101242Y-80732D01*
X102413Y-84954D01*
X102498Y-85062D01*
X102502Y-85200D01*
X104327Y-89183D01*
X104428Y-89277D01*
X104454Y-89412D01*
X106886Y-93057D01*
X107001Y-93133D01*
X107048Y-93262D01*
X110026Y-96476D01*
X110151Y-96534D01*
X110219Y-96653D01*
X113667Y-99356D01*
X114122Y-101245D01*
X97116Y-130699D01*
X95500Y-131834D01*
X92397Y-130625D01*
X92242Y-130629D01*
X92114Y-130543D01*
X88845Y-129906D01*
X88694Y-129937D01*
X88552Y-129876D01*
X85222Y-129831D01*
X85078Y-129888D01*
X84928Y-129853D01*
X81643Y-130402D01*
X81512Y-130484D01*
X81358Y-130477D01*
X78223Y-131602D01*
X78109Y-131705D01*
X77956Y-131726D01*
X76243Y-132715D01*
X44899Y-101370D01*
X143420Y-2849D01*
X153212D01*
X153644Y-5236D01*
D02*
G37*
G36*
X-88762Y-48388D02*
Y-129838D01*
X-88845Y-129906D01*
X-92114Y-130543D01*
X-92242Y-130629D01*
X-92397Y-130625D01*
X-95500Y-131834D01*
X-97116Y-130699D01*
X-114146Y-101202D01*
X-113652Y-99318D01*
X-110202Y-96618D01*
X-110134Y-96498D01*
X-110009Y-96441D01*
X-107030Y-93229D01*
X-106982Y-93100D01*
X-106867Y-93023D01*
X-104433Y-89380D01*
X-104406Y-89245D01*
X-104306Y-89152D01*
X-102479Y-85169D01*
X-102474Y-85032D01*
X-102389Y-84923D01*
X-101215Y-80702D01*
X-101232Y-80566D01*
X-101165Y-80445D01*
X-100674Y-76091D01*
X-100712Y-75959D01*
X-100666Y-75830D01*
X-100870Y-71453D01*
X-100928Y-71329D01*
X-100903Y-71193D01*
X-101797Y-66904D01*
X-101874Y-66791D01*
X-101870Y-66653D01*
X-100541Y-64628D01*
X-99401Y-64544D01*
X-99110Y-64836D01*
X-97429Y-65532D01*
X-95611D01*
X-93930Y-64836D01*
X-92644Y-63550D01*
X-91948Y-61869D01*
Y-60051D01*
X-92644Y-58370D01*
X-93930Y-57084D01*
X-95611Y-56388D01*
X-97429D01*
X-99110Y-57084D01*
X-100137Y-58111D01*
X-106045D01*
X-108644Y-54911D01*
X-108765Y-54846D01*
X-108825Y-54722D01*
X-112091Y-51801D01*
X-112220Y-51755D01*
X-112299Y-51642D01*
X-115986Y-49275D01*
X-116121Y-49251D01*
X-116217Y-49152D01*
X-120232Y-47397D01*
X-120369Y-47395D01*
X-120479Y-47312D01*
X-124721Y-46215D01*
X-124857Y-46234D01*
X-124979Y-46170D01*
X-129341Y-45758D01*
X-129472Y-45799D01*
X-129602Y-45754D01*
X-133975Y-46038D01*
X-134098Y-46099D01*
X-134234Y-46076D01*
X-138506Y-47048D01*
X-138618Y-47127D01*
X-138756Y-47126D01*
X-142821Y-48761D01*
X-144708Y-48267D01*
X-161738Y-18769D01*
X-161891Y-16804D01*
X-159293Y-14722D01*
X-159218Y-14586D01*
X-159080Y-14517D01*
X-156894Y-12005D01*
X-156845Y-11859D01*
X-156721Y-11766D01*
X-155017Y-8905D01*
X-154995Y-8752D01*
X-154890Y-8639D01*
X-153723Y-5520D01*
X-153728Y-5366D01*
X-153645Y-5236D01*
X-153212Y-2849D01*
X-134301D01*
X-88762Y-48388D01*
D02*
G37*
G36*
X-125134Y-47812D02*
X-120892Y-48909D01*
X-116877Y-50663D01*
X-113190Y-53031D01*
X-109925Y-55951D01*
X-107162Y-59352D01*
X-104973Y-63147D01*
X-103411Y-67241D01*
X-102517Y-71530D01*
X-102313Y-75907D01*
X-102804Y-80260D01*
X-103978Y-84482D01*
X-105805Y-88464D01*
X-108239Y-92107D01*
X-111219Y-95319D01*
X-114669Y-98019D01*
X-116586Y-99079D01*
Y-99079D01*
X-144082Y-51421D01*
X-142205Y-50292D01*
X-138140Y-48656D01*
X-133868Y-47684D01*
X-129496Y-47401D01*
X-125134Y-47812D01*
D02*
G37*
G36*
X133915Y-47734D02*
X138187Y-48709D01*
X142250Y-50347D01*
X144127Y-51477D01*
X116601Y-99118D01*
X114685Y-98057D01*
X111236Y-95355D01*
X108258Y-92141D01*
X105827Y-88497D01*
X104002Y-84513D01*
X102831Y-80291D01*
X102343Y-75937D01*
X102550Y-71561D01*
X103446Y-67272D01*
X105010Y-63179D01*
X107202Y-59386D01*
X109967Y-55987D01*
X113234Y-53068D01*
X116922Y-50703D01*
X120938Y-48951D01*
X125181Y-47857D01*
X129543Y-47448D01*
X133915Y-47734D01*
D02*
G37*
G36*
X71771Y-136300D02*
X69964Y-138492D01*
X69919Y-138640D01*
X69798Y-138736D01*
X68172Y-141642D01*
X68154Y-141796D01*
X68052Y-141911D01*
X66969Y-145061D01*
X66979Y-145215D01*
X66898Y-145347D01*
X66394Y-148638D01*
X64593Y-149458D01*
X30652D01*
X29709Y-148497D01*
X29215Y-147654D01*
X28602Y-143316D01*
X28532Y-143197D01*
X28544Y-143060D01*
X27253Y-138874D01*
X27165Y-138768D01*
X27156Y-138630D01*
X25218Y-134701D01*
X25114Y-134610D01*
X25084Y-134476D01*
X22548Y-130903D01*
X22432Y-130830D01*
X22380Y-130702D01*
X19312Y-127575D01*
X19185Y-127521D01*
X19114Y-127403D01*
X15589Y-124801D01*
X15455Y-124768D01*
X15367Y-124663D01*
X13009Y-123444D01*
Y-114609D01*
X26863D01*
X27890Y-115636D01*
X29571Y-116332D01*
X31389D01*
X33070Y-115636D01*
X34356Y-114350D01*
X35052Y-112669D01*
Y-110851D01*
X34356Y-109170D01*
X33070Y-107884D01*
X31389Y-107188D01*
X29571D01*
X27890Y-107884D01*
X26863Y-108911D01*
X11648D01*
X10558Y-109128D01*
X9633Y-109746D01*
X9633Y-109746D01*
X8146Y-111234D01*
X7528Y-112158D01*
X7311Y-113248D01*
X7311Y-113248D01*
Y-119217D01*
X5279Y-120871D01*
X2491Y-120423D01*
X2357Y-120455D01*
X2230Y-120402D01*
X-2151Y-120401D01*
X-2278Y-120453D01*
X-2412Y-120421D01*
X-6739Y-121113D01*
X-6856Y-121185D01*
X-6993Y-121175D01*
X-11155Y-122543D01*
X-11260Y-122633D01*
X-11397Y-122644D01*
X-15290Y-124653D01*
X-15379Y-124758D01*
X-15513Y-124791D01*
X-19039Y-127391D01*
X-19110Y-127509D01*
X-19237Y-127563D01*
X-22308Y-130688D01*
X-22359Y-130816D01*
X-22476Y-130889D01*
X-25014Y-134460D01*
X-25044Y-134594D01*
X-25148Y-134685D01*
X-27088Y-138613D01*
X-27097Y-138751D01*
X-27185Y-138857D01*
X-28480Y-143042D01*
X-28467Y-143179D01*
X-28537Y-143298D01*
X-29153Y-147636D01*
X-29646Y-148496D01*
X-30591Y-149458D01*
X-64593D01*
X-66394Y-148638D01*
X-66898Y-145347D01*
X-66979Y-145215D01*
X-66969Y-145061D01*
X-68052Y-141911D01*
X-68154Y-141796D01*
X-68172Y-141642D01*
X-69392Y-139461D01*
X-34150Y-104219D01*
X39690D01*
X71771Y-136300D01*
D02*
G37*
G36*
X2230Y-122052D02*
X6556Y-122746D01*
X10717Y-124117D01*
X14609Y-126128D01*
X18134Y-128730D01*
X21203Y-131857D01*
X23738Y-135431D01*
X25676Y-139360D01*
X26968Y-143547D01*
X27581Y-147885D01*
X27541Y-150075D01*
X-27480Y-150058D01*
X-27520Y-147868D01*
X-26904Y-143530D01*
X-25609Y-139344D01*
X-23669Y-135416D01*
X-21131Y-131844D01*
X-18061Y-128719D01*
X-14534Y-126119D01*
X-10640Y-124110D01*
X-6478Y-122742D01*
X-2152Y-122050D01*
X2230Y-122052D01*
D02*
G37*
G36*
X88529Y-131525D02*
X91798Y-132162D01*
X94901Y-133371D01*
X96320Y-134242D01*
X86890Y-150530D01*
X68069Y-150553D01*
X68025Y-148889D01*
X68529Y-145597D01*
X69612Y-142448D01*
X71238Y-139541D01*
X73355Y-136971D01*
X75897Y-134819D01*
X78781Y-133154D01*
X81915Y-132029D01*
X85200Y-131481D01*
X88529Y-131525D01*
D02*
G37*
G36*
X-81915Y-132029D02*
X-78781Y-133154D01*
X-75897Y-134819D01*
X-73355Y-136971D01*
X-71238Y-139541D01*
X-69612Y-142448D01*
X-68529Y-145597D01*
X-68025Y-148889D01*
X-68069Y-150553D01*
X-86890Y-150530D01*
X-96320Y-134242D01*
X-94901Y-133371D01*
X-91798Y-132162D01*
X-88529Y-131525D01*
X-85200Y-131481D01*
X-81915Y-132029D01*
D02*
G37*
%LPC*%
G36*
X-83629Y38476D02*
X-102377D01*
Y19728D01*
X-83629D01*
Y38476D01*
D02*
G37*
G36*
X-91769Y13076D02*
X-94238D01*
X-96622Y12437D01*
X-98759Y11203D01*
X-100505Y9458D01*
X-101739Y7321D01*
X-102377Y4936D01*
Y2468D01*
X-101739Y84D01*
X-100505Y-2053D01*
X-98759Y-3799D01*
X-96622Y-5033D01*
X-94238Y-5672D01*
X-91769D01*
X-89385Y-5033D01*
X-87248Y-3799D01*
X-85502Y-2053D01*
X-84268Y84D01*
X-83629Y2468D01*
Y4936D01*
X-84268Y7321D01*
X-85502Y9458D01*
X-87248Y11203D01*
X-89385Y12437D01*
X-91769Y13076D01*
D02*
G37*
G36*
X34290Y122362D02*
X32395Y121577D01*
X30823Y120005D01*
X30038Y118110D01*
X34290D01*
Y122362D01*
D02*
G37*
%LPD*%
D17*
X-66040Y91440D02*
X-60050Y85450D01*
X-66040Y45720D02*
Y91440D01*
X35560Y108056D02*
X36522D01*
X34598D02*
X35560D01*
X17150Y-15240D02*
X18400Y-16490D01*
X-8777Y60556D02*
X-6374Y58152D01*
X-9504Y60556D02*
X-8777D01*
X-6374Y58152D02*
X6892D01*
X7160Y58420D01*
X-40640Y71120D02*
X-26268D01*
X-20678Y66398D02*
X-4864D01*
X-26268Y71120D02*
X-21188Y66040D01*
X-20754Y66474D02*
X-20678Y66398D01*
X-4864D02*
X-3893Y65426D01*
X-28554Y78126D02*
X-20320Y86360D01*
X-3893Y65426D02*
X16901D01*
X-12126Y86360D02*
X-3893Y78126D01*
X-9480Y71964D02*
X6316D01*
X-10160Y72644D02*
X-9480Y71964D01*
X-3893Y78126D02*
X16901D01*
X-20320Y86360D02*
X-12126D01*
X6316Y71964D02*
X7160Y71120D01*
X43356Y63616D02*
X50500Y70760D01*
X16901Y65426D02*
X18711Y63616D01*
X43356D01*
X-76386Y-5080D02*
X20880D01*
X-93003Y-21698D02*
X-76386Y-5080D01*
X39681Y-18420D02*
X50800Y-29539D01*
X32400Y-16490D02*
X34330Y-18420D01*
X39681D01*
X50800Y-30480D02*
Y-29539D01*
X31720Y-15920D02*
X32199D01*
X20880Y-5080D02*
X31720Y-15920D01*
X-123901Y71401D02*
X-123901D01*
X-118541Y66040D01*
X-106224D01*
X-102398Y69865D02*
X-95032D01*
X-94794Y70104D01*
X-106224Y66040D02*
X-102398Y69865D01*
X116872Y71151D02*
X123552D01*
X123901Y71501D01*
X80264Y-31110D02*
Y-28934D01*
X86360Y-22838D02*
Y40640D01*
X116872Y71151D01*
X80264Y-28934D02*
X86360Y-22838D01*
X9272Y127050D02*
Y133829D01*
X7565Y125343D02*
X9272Y127050D01*
X7565Y117602D02*
Y125343D01*
X0Y143101D02*
X9272Y133829D01*
X-53584Y74922D02*
X-50381Y78126D01*
X-53584Y64114D02*
Y74922D01*
Y64114D02*
X-47890Y58420D01*
X-50381Y78126D02*
X-28554D01*
X-47890Y58420D02*
X-40640D01*
X16901Y78126D02*
X23731Y71295D01*
X35025D02*
X35560Y70760D01*
X23731Y71295D02*
X35025D01*
X-123901Y-71501D02*
X-113360Y-60960D01*
X-96520D01*
X0Y-142621D02*
X10160Y-132461D01*
X11648Y-111760D02*
X30480D01*
X10160Y-132461D02*
Y-113248D01*
X11648Y-111760D01*
X50500Y70760D02*
X50800D01*
X86360Y-76200D02*
X118683D01*
X123282Y-71601D01*
X123901D01*
X-35116Y-45276D02*
X-9454D01*
X-35560Y-45720D02*
X-35116Y-45276D01*
X-9454D02*
X-2660Y-52070D01*
X-82601Y-143101D02*
Y-141195D01*
X36721Y115679D02*
X40693Y111707D01*
X52188D01*
X70483Y93412D01*
X36721Y115679D02*
Y116514D01*
X37048Y116840D01*
X70483Y-34923D02*
Y93412D01*
Y-34923D02*
X85308Y-49748D01*
X163674Y0D02*
X165199D01*
X71981Y143101D02*
X82601D01*
X45720Y116840D02*
X71981Y143101D01*
X37048Y116840D02*
X45720D01*
X35560D02*
X37048D01*
X137160Y0D02*
X142240D01*
X87412Y-49748D02*
X137160Y0D01*
X142240D02*
X163674D01*
X40870Y-101370D02*
X142240Y0D01*
X85308Y-49748D02*
X87412D01*
X40870Y-101370D02*
X82601Y-143101D01*
X30480Y111760D02*
X35560Y116840D01*
X-51260Y111760D02*
X30480D01*
X-82601Y143101D02*
X-51260Y111760D01*
X-35330Y-101370D02*
X40870D01*
X-76141Y-142181D02*
X-35330Y-101370D01*
X-81681Y-142181D02*
X-76141D01*
X-165199Y0D02*
X-133121D01*
X-85913Y-47208D01*
Y-137883D02*
X-82601Y-141195D01*
X-85913Y-137883D02*
Y-47208D01*
X15240Y45720D02*
X15340D01*
X15970Y46350D02*
Y46450D01*
X20320Y50800D01*
X43791D01*
X15340Y45720D02*
X15970Y46350D01*
X43791Y50800D02*
X58291Y65300D01*
X38239Y106339D02*
X51808D01*
X36522Y108056D02*
X38239Y106339D01*
X51808D02*
X66419Y91728D01*
X50186Y102214D02*
X62355Y90045D01*
X-30272Y102214D02*
X50186D01*
X-33390Y96520D02*
X-31760Y98150D01*
Y100726D01*
X-30272Y102214D01*
X62355Y52195D02*
Y90045D01*
X35260Y86360D02*
X51100D01*
X58291Y65300D02*
Y79169D01*
X66372Y40100D02*
X66419Y40147D01*
X51100Y86360D02*
X58291Y79169D01*
X66419Y40147D02*
Y91728D01*
X55880Y45720D02*
X62355Y52195D01*
X66040Y-55880D02*
X66372Y-55548D01*
Y40100D01*
X25400Y45720D02*
X55880D01*
X65500Y40100D02*
X65936Y40536D01*
X-60050Y85450D02*
X-42270D01*
X-40640Y83820D01*
X-66040Y91440D02*
X-51202Y106278D01*
X32820D01*
X34598Y108056D01*
X20320Y-91440D02*
X55880Y-55880D01*
X66040D01*
X15240Y40100D02*
X25400D01*
X65500D01*
X18400Y-45520D02*
Y-16490D01*
Y-15240D01*
X5080D02*
X17150D01*
X-5180Y-69100D02*
X18400Y-45520D01*
X-5080Y-91440D02*
Y-69950D01*
X-5180Y-69850D02*
X-5080Y-69950D01*
Y-91440D02*
X19360D01*
X-5180Y-69850D02*
Y-69100D01*
X-40640Y96520D02*
X-33390D01*
X7160D02*
X25100D01*
X35260Y86360D01*
X-17660Y-69830D02*
Y-52070D01*
X-17680Y-69850D02*
X-17660Y-69830D01*
D18*
X32400Y-15240D02*
D03*
X18400D02*
D03*
D19*
X7160Y58420D02*
D03*
Y71120D02*
D03*
X-40640Y58420D02*
D03*
Y71120D02*
D03*
X7160Y96520D02*
D03*
Y83820D02*
D03*
X-40640Y96520D02*
D03*
Y83820D02*
D03*
D20*
X-123901Y71401D02*
D03*
X123901Y-71601D02*
D03*
X82601Y-143101D02*
D03*
X-82601Y143101D02*
D03*
D21*
X123901Y71501D02*
D03*
X-123901Y-71501D02*
D03*
X165199Y0D02*
D03*
X-165199D02*
D03*
D22*
X0Y143101D02*
D03*
Y-142621D02*
D03*
X82601Y143101D02*
D03*
X-82601Y-143101D02*
D03*
D23*
X35560Y70760D02*
D03*
X50800D02*
D03*
X35560Y86360D02*
D03*
X50800D02*
D03*
D24*
X-2660Y-52070D02*
D03*
X-17660D02*
D03*
D25*
X15240Y40100D02*
D03*
X25400D02*
D03*
X15240Y45720D02*
D03*
X25400D02*
D03*
D26*
X-5180Y-69850D02*
D03*
X-17680D02*
D03*
D35*
X-93003Y-21698D02*
D03*
Y3702D02*
D03*
D36*
Y29102D02*
D03*
D38*
X-66040Y45720D02*
D03*
X-9504Y60556D02*
D03*
X-21188Y66040D02*
D03*
X-10160Y72644D02*
D03*
X50800Y-30480D02*
D03*
X-94794Y70104D02*
D03*
X80264Y-31110D02*
D03*
X7565Y117602D02*
D03*
X-20320Y86360D02*
D03*
X-96520Y-60960D02*
D03*
X30480Y-111760D02*
D03*
X86360Y-76200D02*
D03*
X-35560Y-45720D02*
D03*
X35560Y116840D02*
D03*
X-66040Y91440D02*
D03*
X35560Y108056D02*
D03*
X66040Y-55880D02*
D03*
X20320Y-91440D02*
D03*
X5080Y-15240D02*
D03*
X-5080Y-91440D02*
D03*
M02*
