G04*
G04 #@! TF.GenerationSoftware,Altium Limited,Altium Designer,25.8.1 (18)*
G04*
G04 Layer_Color=16711935*
%FSLAX44Y44*%
%MOMM*%
G71*
G04*
G04 #@! TF.SameCoordinates,72622D7D-59BA-477E-922F-BDBC8D2A5B01*
G04*
G04*
G04 #@! TF.FilePolarity,Positive*
G04*
G01*
G75*
%ADD51C,0.1524*%
%ADD57C,0.0635*%
D51*
X57960Y41300D02*
X77960D01*
Y60300D01*
X43960D02*
X77960D01*
X43960Y41300D02*
Y60300D01*
Y41300D02*
X57960D01*
X43960Y76810D02*
X63960D01*
X43960Y57810D02*
Y76810D01*
Y57810D02*
X77960D01*
Y76810D01*
X63960D02*
X77960D01*
D57*
X84164Y47784D02*
X83861Y47179D01*
X83257Y46575D01*
X82652Y46273D01*
X81443D01*
X80838Y46575D01*
X80234Y47179D01*
X79931Y47784D01*
X79629Y48691D01*
Y50203D01*
X79931Y51110D01*
X80234Y51714D01*
X80838Y52319D01*
X81443Y52621D01*
X82652D01*
X83257Y52319D01*
X83861Y51714D01*
X84164Y51110D01*
X88971Y46273D02*
X85947Y50505D01*
X90482D01*
X88971Y46273D02*
Y52621D01*
X93415Y46273D02*
X92508Y46575D01*
X91903Y47482D01*
X91601Y48993D01*
Y49900D01*
X91903Y51412D01*
X92508Y52319D01*
X93415Y52621D01*
X94019D01*
X94926Y52319D01*
X95531Y51412D01*
X95833Y49900D01*
Y48993D01*
X95531Y47482D01*
X94926Y46575D01*
X94019Y46273D01*
X93415D01*
X37756Y70326D02*
X38059Y70931D01*
X38663Y71535D01*
X39268Y71837D01*
X40477D01*
X41082Y71535D01*
X41686Y70931D01*
X41989Y70326D01*
X42291Y69419D01*
Y67907D01*
X41989Y67000D01*
X41686Y66396D01*
X41082Y65791D01*
X40477Y65489D01*
X39268D01*
X38663Y65791D01*
X38059Y66396D01*
X37756Y67000D01*
X32949Y71837D02*
X35973Y67605D01*
X31438D01*
X32949Y71837D02*
Y65489D01*
X28505Y71837D02*
X29412Y71535D01*
X30017Y70628D01*
X30319Y69117D01*
Y68210D01*
X30017Y66698D01*
X29412Y65791D01*
X28505Y65489D01*
X27901D01*
X26994Y65791D01*
X26389Y66698D01*
X26087Y68210D01*
Y69117D01*
X26389Y70628D01*
X26994Y71535D01*
X27901Y71837D01*
X28505D01*
M02*
