G04*
G04 #@! TF.GenerationSoftware,Altium Limited,Altium Designer,25.8.1 (18)*
G04*
G04 Layer_Color=255*
%FSLAX44Y44*%
%MOMM*%
G71*
G04*
G04 #@! TF.SameCoordinates,72622D7D-59BA-477E-922F-BDBC8D2A5B01*
G04*
G04*
G04 #@! TF.FilePolarity,Positive*
G04*
G01*
G75*
%ADD18R,0.6400X0.8900*%
G04:AMPARAMS|DCode=19|XSize=2.03mm|YSize=0.58mm|CornerRadius=0.0435mm|HoleSize=0mm|Usage=FLASHONLY|Rotation=0.000|XOffset=0mm|YOffset=0mm|HoleType=Round|Shape=RoundedRectangle|*
%AMROUNDEDRECTD19*
21,1,2.0300,0.4930,0,0,0.0*
21,1,1.9430,0.5800,0,0,0.0*
1,1,0.0870,0.9715,-0.2465*
1,1,0.0870,-0.9715,-0.2465*
1,1,0.0870,-0.9715,0.2465*
1,1,0.0870,0.9715,0.2465*
%
%ADD19ROUNDEDRECTD19*%
G04:AMPARAMS|DCode=20|XSize=1mm|YSize=1mm|CornerRadius=0.5mm|HoleSize=0mm|Usage=FLASHONLY|Rotation=120.000|XOffset=0mm|YOffset=0mm|HoleType=Round|Shape=RoundedRectangle|*
%AMROUNDEDRECTD20*
21,1,1.0000,0.0000,0,0,120.0*
21,1,0.0000,1.0000,0,0,120.0*
1,1,1.0000,0.0000,0.0000*
1,1,1.0000,0.0000,0.0000*
1,1,1.0000,0.0000,0.0000*
1,1,1.0000,0.0000,0.0000*
%
%ADD20ROUNDEDRECTD20*%
G04:AMPARAMS|DCode=21|XSize=1mm|YSize=1mm|CornerRadius=0.5mm|HoleSize=0mm|Usage=FLASHONLY|Rotation=0.000|XOffset=0mm|YOffset=0mm|HoleType=Round|Shape=RoundedRectangle|*
%AMROUNDEDRECTD21*
21,1,1.0000,0.0000,0,0,0.0*
21,1,0.0000,1.0000,0,0,0.0*
1,1,1.0000,0.0000,0.0000*
1,1,1.0000,0.0000,0.0000*
1,1,1.0000,0.0000,0.0000*
1,1,1.0000,0.0000,0.0000*
%
%ADD21ROUNDEDRECTD21*%
G04:AMPARAMS|DCode=22|XSize=1mm|YSize=1mm|CornerRadius=0.5mm|HoleSize=0mm|Usage=FLASHONLY|Rotation=60.000|XOffset=0mm|YOffset=0mm|HoleType=Round|Shape=RoundedRectangle|*
%AMROUNDEDRECTD22*
21,1,1.0000,0.0000,0,0,60.0*
21,1,0.0000,1.0000,0,0,60.0*
1,1,1.0000,0.0000,0.0000*
1,1,1.0000,0.0000,0.0000*
1,1,1.0000,0.0000,0.0000*
1,1,1.0000,0.0000,0.0000*
%
%ADD22ROUNDEDRECTD22*%
%ADD23R,0.9300X0.8700*%
%ADD24R,0.8000X0.8000*%
%ADD25R,0.4000X0.3800*%
%ADD26R,0.8000X0.9500*%
%ADD35C,1.5700*%
%ADD36R,1.5700X1.5700*%
D18*
X32400Y-15240D02*
D03*
X18400D02*
D03*
D19*
X7160Y58420D02*
D03*
Y71120D02*
D03*
X-40640Y58420D02*
D03*
Y71120D02*
D03*
X7160Y96520D02*
D03*
Y83820D02*
D03*
X-40640Y96520D02*
D03*
Y83820D02*
D03*
D20*
X-123901Y71401D02*
D03*
X123901Y-71601D02*
D03*
X82601Y-143101D02*
D03*
X-82601Y143101D02*
D03*
D21*
X123901Y71501D02*
D03*
X-123901Y-71501D02*
D03*
X165199Y0D02*
D03*
X-165199D02*
D03*
D22*
X0Y143101D02*
D03*
Y-142621D02*
D03*
X82601Y143101D02*
D03*
X-82601Y-143101D02*
D03*
D23*
X35560Y70760D02*
D03*
X50800D02*
D03*
X35560Y86360D02*
D03*
X50800D02*
D03*
D24*
X-2660Y-52070D02*
D03*
X-17660D02*
D03*
D25*
X15240Y40100D02*
D03*
X25400D02*
D03*
X15240Y45720D02*
D03*
X25400D02*
D03*
D26*
X-5180Y-69850D02*
D03*
X-17680D02*
D03*
D35*
X-93003Y-21698D02*
D03*
Y3702D02*
D03*
D36*
Y29102D02*
D03*
M02*
