G04*
G04 #@! TF.GenerationSoftware,Altium Limited,Altium Designer,25.8.1 (18)*
G04*
G04 Layer_Color=32768*
%FSLAX44Y44*%
%MOMM*%
G71*
G04*
G04 #@! TF.SameCoordinates,72622D7D-59BA-477E-922F-BDBC8D2A5B01*
G04*
G04*
G04 #@! TF.FilePolarity,Positive*
G04*
G01*
G75*
%ADD14C,0.1000*%
%ADD54C,0.0500*%
D14*
X-50800Y35890D02*
Y45390D01*
X-55550Y40640D02*
X-46050D01*
X-16180Y-69850D02*
X-6680D01*
X-11430Y-74600D02*
Y-65100D01*
X66370Y90170D02*
X75870D01*
X71120Y85420D02*
Y94920D01*
D54*
X-41250Y-41250D02*
Y41250D01*
Y-41250D02*
X41250D01*
X-41250Y41250D02*
X41250D01*
Y-41250D02*
Y41250D01*
X-54240Y102470D02*
X-39240D01*
Y104970D01*
X5760D01*
Y102470D02*
Y104970D01*
Y102470D02*
X20760D01*
Y52470D02*
Y102470D01*
X5760Y52470D02*
X20760D01*
X5760Y49970D02*
Y52470D01*
X-39240Y49970D02*
X5760D01*
X-39240D02*
Y52470D01*
X-54240D02*
X-39240D01*
X-54240D02*
Y102470D01*
X43650Y93210D02*
X57950D01*
X43650Y63910D02*
X57950D01*
X43650D02*
Y93210D01*
X57950Y63910D02*
Y93210D01*
X29880Y35730D02*
Y50090D01*
X20920Y35730D02*
Y50090D01*
Y35730D02*
X29880D01*
X20920Y50090D02*
X29880D01*
X42710Y63910D02*
Y93210D01*
X28410Y63910D02*
Y93210D01*
Y63910D02*
X42710D01*
X28410Y93210D02*
X42710D01*
X-58300Y27640D02*
X-43300D01*
X-58300Y53640D02*
X-43300D01*
Y27640D02*
Y53640D01*
X-58300Y27640D02*
Y53640D01*
X1570Y-77350D02*
Y-62350D01*
X-24430Y-77350D02*
Y-62350D01*
Y-77350D02*
X1570D01*
X-24430Y-62350D02*
X1570D01*
X19720Y35730D02*
Y50090D01*
X10760Y35730D02*
Y50090D01*
Y35730D02*
X19720D01*
X10760Y50090D02*
X19720D01*
X78620Y77170D02*
Y103170D01*
X63620Y77170D02*
Y103170D01*
Y77170D02*
X78620D01*
X63620Y103170D02*
X78620D01*
M02*
