G04*
G04 #@! TF.GenerationSoftware,Altium Limited,Altium Designer,25.8.1 (18)*
G04*
G04 Layer_Color=32896*
%FSLAX44Y44*%
%MOMM*%
G71*
G04*
G04 #@! TF.SameCoordinates,72622D7D-59BA-477E-922F-BDBC8D2A5B01*
G04*
G04*
G04 #@! TF.FilePolarity,Positive*
G04*
G01*
G75*
%ADD11C,0.2500*%
%ADD13C,0.2000*%
%ADD14C,0.1000*%
%ADD15C,0.0800*%
%ADD16C,0.0762*%
%ADD17C,0.2540*%
%ADD51C,0.1524*%
G36*
X8773Y44331D02*
X8353D01*
X8282Y44458D01*
X8194Y44585D01*
X8099Y44704D01*
X8004Y44815D01*
X7917Y44902D01*
X7846Y44973D01*
X7798Y45021D01*
X7790Y45029D01*
X7782Y45037D01*
X7632Y45163D01*
X7473Y45282D01*
X7315Y45385D01*
X7172Y45472D01*
X7045Y45544D01*
X6990Y45567D01*
X6942Y45591D01*
X6911Y45615D01*
X6879Y45631D01*
X6863Y45639D01*
X6855D01*
Y46265D01*
X6966Y46217D01*
X7085Y46162D01*
X7196Y46114D01*
X7299Y46059D01*
X7386Y46011D01*
X7457Y45972D01*
X7505Y45940D01*
X7513Y45932D01*
X7521D01*
X7656Y45853D01*
X7774Y45766D01*
X7877Y45694D01*
X7965Y45623D01*
X8036Y45567D01*
X8091Y45528D01*
X8123Y45496D01*
X8131Y45488D01*
Y49562D01*
X8773D01*
Y44331D01*
D02*
G37*
G36*
X3709Y49633D02*
X3947Y49601D01*
X4058Y49585D01*
X4153Y49562D01*
X4248Y49530D01*
X4327Y49506D01*
X4398Y49482D01*
X4470Y49451D01*
X4525Y49427D01*
X4565Y49411D01*
X4604Y49387D01*
X4628Y49379D01*
X4644Y49363D01*
X4652D01*
X4811Y49245D01*
X4953Y49126D01*
X5064Y48999D01*
X5151Y48880D01*
X5215Y48769D01*
X5262Y48690D01*
X5278Y48658D01*
X5286Y48634D01*
X5294Y48618D01*
Y48611D01*
X5357Y48428D01*
X5397Y48222D01*
X5429Y48016D01*
X5452Y47818D01*
X5460Y47723D01*
X5468Y47636D01*
Y47565D01*
X5476Y47493D01*
Y47438D01*
Y47398D01*
Y47374D01*
Y47366D01*
Y44355D01*
X4787D01*
Y47366D01*
Y47541D01*
X4771Y47707D01*
X4755Y47850D01*
X4739Y47985D01*
X4715Y48111D01*
X4684Y48214D01*
X4652Y48309D01*
X4628Y48397D01*
X4597Y48468D01*
X4565Y48531D01*
X4541Y48579D01*
X4509Y48618D01*
X4493Y48650D01*
X4478Y48674D01*
X4462Y48682D01*
Y48690D01*
X4398Y48753D01*
X4319Y48801D01*
X4153Y48888D01*
X3978Y48944D01*
X3796Y48991D01*
X3638Y49015D01*
X3566Y49023D01*
X3503D01*
X3447Y49031D01*
X3376D01*
X3218Y49023D01*
X3075Y49007D01*
X2948Y48975D01*
X2837Y48944D01*
X2750Y48920D01*
X2687Y48888D01*
X2647Y48872D01*
X2631Y48864D01*
X2520Y48793D01*
X2433Y48714D01*
X2354Y48626D01*
X2298Y48547D01*
X2251Y48476D01*
X2219Y48420D01*
X2203Y48381D01*
X2195Y48365D01*
X2172Y48302D01*
X2156Y48230D01*
X2124Y48072D01*
X2108Y47905D01*
X2092Y47747D01*
X2084Y47596D01*
X2076Y47533D01*
Y47477D01*
Y47430D01*
Y47398D01*
Y47374D01*
Y47366D01*
Y44355D01*
X1387D01*
Y47366D01*
Y47517D01*
X1395Y47660D01*
X1403Y47794D01*
X1419Y47921D01*
X1435Y48032D01*
X1450Y48143D01*
X1466Y48238D01*
X1490Y48325D01*
X1506Y48405D01*
X1522Y48476D01*
X1538Y48539D01*
X1553Y48587D01*
X1569Y48626D01*
X1577Y48650D01*
X1585Y48666D01*
Y48674D01*
X1672Y48840D01*
X1775Y48991D01*
X1878Y49110D01*
X1989Y49213D01*
X2084Y49300D01*
X2172Y49356D01*
X2203Y49379D01*
X2219Y49387D01*
X2235Y49403D01*
X2243D01*
X2425Y49482D01*
X2631Y49546D01*
X2829Y49585D01*
X3020Y49617D01*
X3107Y49625D01*
X3186Y49633D01*
X3257Y49641D01*
X3321D01*
X3368Y49649D01*
X3440D01*
X3709Y49633D01*
D02*
G37*
G36*
X79276Y7565D02*
X79358Y7444D01*
X79456Y7324D01*
X79546Y7219D01*
X79637Y7129D01*
X79704Y7054D01*
X79734Y7031D01*
X79757Y7009D01*
X79764Y7001D01*
X79772Y6993D01*
X79930Y6866D01*
X80088Y6745D01*
X80238Y6640D01*
X80388Y6557D01*
X80516Y6482D01*
X80569Y6452D01*
X80614Y6430D01*
X80652Y6407D01*
X80682Y6399D01*
X80697Y6384D01*
X80704D01*
Y5768D01*
X80591Y5813D01*
X80479Y5866D01*
X80366Y5918D01*
X80261Y5971D01*
X80170Y6016D01*
X80095Y6054D01*
X80050Y6084D01*
X80043Y6091D01*
X80035D01*
X79900Y6174D01*
X79780Y6257D01*
X79674Y6332D01*
X79591Y6399D01*
X79516Y6452D01*
X79471Y6497D01*
X79434Y6527D01*
X79426Y6535D01*
Y2467D01*
X78787D01*
Y7693D01*
X79201D01*
X79276Y7565D01*
D02*
G37*
G36*
X84305Y5159D02*
X86313Y2467D01*
X85486D01*
X84170Y4272D01*
X84140Y4317D01*
X84102Y4369D01*
X84020Y4490D01*
X83982Y4550D01*
X83952Y4595D01*
X83930Y4625D01*
X83922Y4633D01*
X83847Y4520D01*
X83779Y4415D01*
X83749Y4377D01*
X83734Y4347D01*
X83719Y4324D01*
X83712Y4317D01*
X82396Y2467D01*
X81546D01*
X83494Y5189D01*
X81689Y7670D01*
X82441D01*
X83478Y6287D01*
X83569Y6174D01*
X83644Y6069D01*
X83719Y5963D01*
X83779Y5881D01*
X83832Y5806D01*
X83869Y5745D01*
X83892Y5715D01*
X83900Y5700D01*
X83952Y5791D01*
X84012Y5888D01*
X84080Y5993D01*
X84148Y6099D01*
X84215Y6189D01*
X84260Y6264D01*
X84283Y6294D01*
X84298Y6317D01*
X84313Y6324D01*
Y6332D01*
X85260Y7670D01*
X86080D01*
X84305Y5159D01*
D02*
G37*
G36*
X81697Y93088D02*
X81862Y93058D01*
X82005Y93013D01*
X82125Y92967D01*
X82223Y92922D01*
X82298Y92877D01*
X82343Y92847D01*
X82358Y92840D01*
X82471Y92734D01*
X82569Y92622D01*
X82644Y92501D01*
X82704Y92381D01*
X82749Y92276D01*
X82779Y92193D01*
X82787Y92163D01*
X82794Y92140D01*
X82802Y92125D01*
Y92118D01*
X82870Y92246D01*
X82937Y92351D01*
X83012Y92441D01*
X83080Y92516D01*
X83140Y92577D01*
X83193Y92622D01*
X83223Y92644D01*
X83238Y92652D01*
X83343Y92712D01*
X83448Y92757D01*
X83554Y92795D01*
X83652Y92817D01*
X83734Y92832D01*
X83794Y92840D01*
X83839D01*
X83855D01*
X83982Y92832D01*
X84110Y92809D01*
X84223Y92780D01*
X84321Y92742D01*
X84403Y92704D01*
X84471Y92674D01*
X84509Y92652D01*
X84524Y92644D01*
X84636Y92569D01*
X84734Y92479D01*
X84817Y92388D01*
X84892Y92298D01*
X84945Y92223D01*
X84990Y92155D01*
X85012Y92110D01*
X85020Y92103D01*
Y92095D01*
X85080Y91960D01*
X85125Y91825D01*
X85163Y91689D01*
X85185Y91569D01*
X85200Y91471D01*
X85208Y91389D01*
Y91201D01*
X85193Y91095D01*
X85155Y90892D01*
X85095Y90719D01*
X85035Y90569D01*
X84997Y90501D01*
X84967Y90449D01*
X84937Y90396D01*
X84907Y90358D01*
X84885Y90329D01*
X84869Y90306D01*
X84862Y90291D01*
X84854Y90283D01*
X84712Y90140D01*
X84554Y90028D01*
X84388Y89937D01*
X84223Y89862D01*
X84080Y89817D01*
X84020Y89795D01*
X83967Y89780D01*
X83922Y89772D01*
X83892Y89765D01*
X83869Y89757D01*
X83862D01*
X83749Y90396D01*
X83915Y90426D01*
X84058Y90471D01*
X84178Y90524D01*
X84276Y90577D01*
X84351Y90629D01*
X84403Y90674D01*
X84441Y90704D01*
X84448Y90712D01*
X84524Y90810D01*
X84584Y90915D01*
X84621Y91013D01*
X84651Y91110D01*
X84667Y91201D01*
X84682Y91268D01*
Y91328D01*
X84674Y91464D01*
X84644Y91584D01*
X84606Y91689D01*
X84569Y91779D01*
X84524Y91847D01*
X84486Y91900D01*
X84456Y91937D01*
X84448Y91945D01*
X84358Y92028D01*
X84261Y92088D01*
X84163Y92125D01*
X84073Y92155D01*
X83990Y92170D01*
X83930Y92185D01*
X83884D01*
X83877D01*
X83869D01*
X83787D01*
X83712Y92170D01*
X83584Y92133D01*
X83471Y92080D01*
X83373Y92020D01*
X83306Y91960D01*
X83253Y91907D01*
X83223Y91870D01*
X83215Y91862D01*
Y91855D01*
X83148Y91727D01*
X83095Y91607D01*
X83057Y91479D01*
X83035Y91366D01*
X83020Y91268D01*
X83005Y91186D01*
Y91088D01*
X83012Y91058D01*
Y91020D01*
X82449Y90945D01*
X82471Y91043D01*
X82486Y91133D01*
X82501Y91208D01*
X82509Y91276D01*
X82516Y91328D01*
Y91396D01*
X82501Y91554D01*
X82471Y91697D01*
X82426Y91825D01*
X82373Y91930D01*
X82321Y92013D01*
X82276Y92073D01*
X82246Y92110D01*
X82231Y92125D01*
X82118Y92223D01*
X81997Y92298D01*
X81877Y92351D01*
X81757Y92381D01*
X81659Y92403D01*
X81576Y92411D01*
X81546Y92419D01*
X81524D01*
X81509D01*
X81501D01*
X81336Y92403D01*
X81185Y92366D01*
X81058Y92321D01*
X80945Y92261D01*
X80855Y92201D01*
X80787Y92155D01*
X80742Y92118D01*
X80727Y92103D01*
X80622Y91982D01*
X80546Y91855D01*
X80494Y91727D01*
X80456Y91607D01*
X80434Y91501D01*
X80426Y91419D01*
X80419Y91389D01*
Y91343D01*
X80426Y91208D01*
X80456Y91080D01*
X80494Y90968D01*
X80539Y90877D01*
X80576Y90802D01*
X80614Y90742D01*
X80644Y90712D01*
X80652Y90697D01*
X80757Y90607D01*
X80877Y90532D01*
X81005Y90464D01*
X81140Y90411D01*
X81253Y90374D01*
X81306Y90358D01*
X81351Y90351D01*
X81388Y90344D01*
X81419Y90336D01*
X81433Y90329D01*
X81441D01*
X81358Y89689D01*
X81238Y89704D01*
X81125Y89727D01*
X80915Y89795D01*
X80734Y89877D01*
X80659Y89923D01*
X80584Y89968D01*
X80516Y90013D01*
X80464Y90058D01*
X80411Y90095D01*
X80373Y90133D01*
X80343Y90155D01*
X80321Y90178D01*
X80306Y90193D01*
X80298Y90201D01*
X80231Y90291D01*
X80163Y90381D01*
X80110Y90471D01*
X80065Y90569D01*
X79990Y90757D01*
X79945Y90938D01*
X79930Y91020D01*
X79915Y91095D01*
X79907Y91163D01*
X79900Y91223D01*
X79892Y91268D01*
Y91336D01*
X79900Y91479D01*
X79915Y91607D01*
X79937Y91734D01*
X79967Y91855D01*
X80005Y91967D01*
X80043Y92065D01*
X80088Y92163D01*
X80133Y92246D01*
X80170Y92328D01*
X80216Y92396D01*
X80253Y92456D01*
X80291Y92501D01*
X80321Y92539D01*
X80343Y92569D01*
X80358Y92584D01*
X80366Y92591D01*
X80456Y92682D01*
X80554Y92757D01*
X80652Y92825D01*
X80749Y92885D01*
X80840Y92930D01*
X80937Y92975D01*
X81118Y93035D01*
X81201Y93050D01*
X81276Y93065D01*
X81343Y93080D01*
X81404Y93088D01*
X81449Y93095D01*
X81486D01*
X81509D01*
X81516D01*
X81697Y93088D01*
D02*
G37*
G36*
X81396Y88381D02*
X81546Y88276D01*
X81682Y88178D01*
X81794Y88081D01*
X81900Y87998D01*
X81975Y87923D01*
X82035Y87862D01*
X82073Y87825D01*
X82088Y87810D01*
X82133Y87750D01*
X82185Y87682D01*
X82268Y87547D01*
X82298Y87486D01*
X82328Y87441D01*
X82343Y87411D01*
X82351Y87396D01*
X82373Y87532D01*
X82396Y87659D01*
X82434Y87772D01*
X82464Y87885D01*
X82501Y87983D01*
X82546Y88073D01*
X82584Y88156D01*
X82621Y88231D01*
X82667Y88291D01*
X82704Y88351D01*
X82734Y88396D01*
X82764Y88434D01*
X82787Y88464D01*
X82809Y88486D01*
X82817Y88494D01*
X82824Y88502D01*
X82900Y88562D01*
X82975Y88622D01*
X83133Y88712D01*
X83291Y88772D01*
X83441Y88817D01*
X83569Y88847D01*
X83621Y88855D01*
X83674D01*
X83712Y88862D01*
X83742D01*
X83757D01*
X83764D01*
X83922Y88855D01*
X84065Y88832D01*
X84200Y88795D01*
X84313Y88757D01*
X84411Y88712D01*
X84486Y88682D01*
X84531Y88652D01*
X84539Y88644D01*
X84546D01*
X84667Y88554D01*
X84772Y88464D01*
X84862Y88366D01*
X84930Y88276D01*
X84982Y88193D01*
X85012Y88126D01*
X85035Y88081D01*
X85042Y88073D01*
Y88065D01*
X85065Y87998D01*
X85087Y87915D01*
X85125Y87750D01*
X85148Y87569D01*
X85170Y87404D01*
X85178Y87246D01*
Y87178D01*
X85185Y87118D01*
Y84705D01*
X79983D01*
Y85396D01*
X82291D01*
Y86284D01*
X82283Y86366D01*
Y86426D01*
X82276Y86479D01*
X82268Y86517D01*
Y86547D01*
X82261Y86562D01*
Y86569D01*
X82223Y86690D01*
X82200Y86742D01*
X82178Y86787D01*
X82155Y86832D01*
X82140Y86862D01*
X82133Y86877D01*
X82125Y86885D01*
X82080Y86945D01*
X82028Y87005D01*
X81915Y87118D01*
X81862Y87171D01*
X81817Y87208D01*
X81787Y87231D01*
X81779Y87238D01*
X81674Y87314D01*
X81561Y87396D01*
X81441Y87479D01*
X81328Y87562D01*
X81223Y87629D01*
X81140Y87682D01*
X81110Y87704D01*
X81088Y87720D01*
X81073Y87735D01*
X81065D01*
X79983Y88419D01*
Y89276D01*
X81396Y88381D01*
D02*
G37*
G36*
X-52796Y24465D02*
X-52668Y24555D01*
X-52616Y24601D01*
X-52563Y24638D01*
X-52518Y24676D01*
X-52488Y24706D01*
X-52465Y24728D01*
X-52458Y24736D01*
X-52420Y24773D01*
X-52383Y24818D01*
X-52285Y24924D01*
X-52172Y25044D01*
X-52059Y25172D01*
X-51962Y25292D01*
X-51916Y25345D01*
X-51871Y25390D01*
X-51841Y25427D01*
X-51819Y25458D01*
X-51804Y25473D01*
X-51796Y25480D01*
X-51691Y25600D01*
X-51593Y25721D01*
X-51495Y25826D01*
X-51413Y25924D01*
X-51330Y26014D01*
X-51255Y26089D01*
X-51187Y26164D01*
X-51127Y26225D01*
X-51067Y26285D01*
X-51022Y26330D01*
X-50984Y26367D01*
X-50947Y26405D01*
X-50901Y26442D01*
X-50886Y26458D01*
X-50759Y26563D01*
X-50646Y26653D01*
X-50533Y26728D01*
X-50443Y26788D01*
X-50360Y26833D01*
X-50300Y26864D01*
X-50262Y26879D01*
X-50247Y26886D01*
X-50135Y26931D01*
X-50022Y26961D01*
X-49917Y26991D01*
X-49826Y27006D01*
X-49744Y27014D01*
X-49683Y27021D01*
X-49646D01*
X-49631D01*
X-49518Y27014D01*
X-49413Y26999D01*
X-49308Y26984D01*
X-49217Y26954D01*
X-49037Y26879D01*
X-48894Y26803D01*
X-48826Y26758D01*
X-48774Y26721D01*
X-48721Y26683D01*
X-48684Y26646D01*
X-48653Y26615D01*
X-48623Y26600D01*
X-48616Y26585D01*
X-48608Y26578D01*
X-48533Y26495D01*
X-48465Y26405D01*
X-48413Y26307D01*
X-48368Y26209D01*
X-48293Y26014D01*
X-48240Y25819D01*
X-48225Y25736D01*
X-48210Y25653D01*
X-48202Y25578D01*
X-48195Y25518D01*
X-48187Y25465D01*
Y25390D01*
X-48195Y25255D01*
X-48202Y25127D01*
X-48225Y25006D01*
X-48247Y24894D01*
X-48278Y24788D01*
X-48308Y24691D01*
X-48345Y24601D01*
X-48383Y24518D01*
X-48420Y24443D01*
X-48458Y24383D01*
X-48488Y24330D01*
X-48518Y24285D01*
X-48541Y24247D01*
X-48563Y24225D01*
X-48571Y24209D01*
X-48578Y24202D01*
X-48653Y24127D01*
X-48736Y24059D01*
X-48826Y23991D01*
X-48917Y23939D01*
X-49097Y23849D01*
X-49278Y23788D01*
X-49360Y23766D01*
X-49443Y23743D01*
X-49511Y23728D01*
X-49571Y23713D01*
X-49623Y23706D01*
X-49661D01*
X-49683Y23698D01*
X-49691D01*
X-49759Y24352D01*
X-49586Y24367D01*
X-49435Y24397D01*
X-49300Y24443D01*
X-49195Y24495D01*
X-49105Y24540D01*
X-49044Y24585D01*
X-49007Y24615D01*
X-48992Y24631D01*
X-48902Y24743D01*
X-48834Y24864D01*
X-48781Y24991D01*
X-48751Y25104D01*
X-48729Y25210D01*
X-48721Y25300D01*
X-48714Y25330D01*
Y25375D01*
X-48721Y25533D01*
X-48751Y25676D01*
X-48796Y25796D01*
X-48841Y25901D01*
X-48894Y25984D01*
X-48932Y26037D01*
X-48962Y26074D01*
X-48977Y26089D01*
X-49082Y26179D01*
X-49187Y26247D01*
X-49292Y26300D01*
X-49398Y26330D01*
X-49481Y26352D01*
X-49556Y26360D01*
X-49601Y26367D01*
X-49608D01*
X-49616D01*
X-49751Y26352D01*
X-49894Y26322D01*
X-50022Y26270D01*
X-50142Y26217D01*
X-50240Y26157D01*
X-50323Y26104D01*
X-50353Y26089D01*
X-50375Y26074D01*
X-50383Y26059D01*
X-50390D01*
X-50473Y25999D01*
X-50556Y25924D01*
X-50646Y25841D01*
X-50736Y25751D01*
X-50917Y25563D01*
X-51097Y25375D01*
X-51180Y25277D01*
X-51255Y25194D01*
X-51322Y25112D01*
X-51383Y25044D01*
X-51428Y24991D01*
X-51465Y24946D01*
X-51488Y24916D01*
X-51495Y24909D01*
X-51653Y24721D01*
X-51804Y24548D01*
X-51939Y24405D01*
X-52052Y24292D01*
X-52150Y24195D01*
X-52217Y24127D01*
X-52262Y24089D01*
X-52270Y24074D01*
X-52277D01*
X-52405Y23969D01*
X-52525Y23886D01*
X-52646Y23811D01*
X-52751Y23751D01*
X-52841Y23706D01*
X-52909Y23676D01*
X-52954Y23661D01*
X-52962Y23653D01*
X-52969D01*
X-53052Y23623D01*
X-53127Y23608D01*
X-53202Y23593D01*
X-53270Y23586D01*
X-53330Y23578D01*
X-53375D01*
X-53405D01*
X-53413D01*
Y27029D01*
X-52796D01*
Y24465D01*
D02*
G37*
G36*
X-51999Y22367D02*
X-51849Y22262D01*
X-51714Y22164D01*
X-51601Y22067D01*
X-51495Y21984D01*
X-51420Y21909D01*
X-51360Y21849D01*
X-51322Y21811D01*
X-51308Y21796D01*
X-51262Y21736D01*
X-51210Y21668D01*
X-51127Y21533D01*
X-51097Y21473D01*
X-51067Y21428D01*
X-51052Y21398D01*
X-51044Y21383D01*
X-51022Y21518D01*
X-50999Y21646D01*
X-50962Y21758D01*
X-50932Y21871D01*
X-50894Y21969D01*
X-50849Y22059D01*
X-50811Y22142D01*
X-50774Y22217D01*
X-50729Y22277D01*
X-50691Y22337D01*
X-50661Y22383D01*
X-50631Y22420D01*
X-50608Y22450D01*
X-50586Y22473D01*
X-50578Y22480D01*
X-50571Y22488D01*
X-50496Y22548D01*
X-50420Y22608D01*
X-50262Y22698D01*
X-50104Y22759D01*
X-49954Y22804D01*
X-49826Y22834D01*
X-49774Y22841D01*
X-49721D01*
X-49683Y22849D01*
X-49653D01*
X-49638D01*
X-49631D01*
X-49473Y22841D01*
X-49330Y22819D01*
X-49195Y22781D01*
X-49082Y22743D01*
X-48984Y22698D01*
X-48909Y22668D01*
X-48864Y22638D01*
X-48857Y22631D01*
X-48849D01*
X-48729Y22540D01*
X-48623Y22450D01*
X-48533Y22352D01*
X-48465Y22262D01*
X-48413Y22180D01*
X-48383Y22112D01*
X-48360Y22067D01*
X-48353Y22059D01*
Y22052D01*
X-48330Y21984D01*
X-48308Y21901D01*
X-48270Y21736D01*
X-48247Y21556D01*
X-48225Y21390D01*
X-48217Y21232D01*
Y21165D01*
X-48210Y21104D01*
Y18691D01*
X-53413D01*
Y19383D01*
X-51104D01*
Y20270D01*
X-51112Y20353D01*
Y20413D01*
X-51119Y20465D01*
X-51127Y20503D01*
Y20533D01*
X-51135Y20548D01*
Y20556D01*
X-51172Y20676D01*
X-51195Y20728D01*
X-51217Y20774D01*
X-51240Y20819D01*
X-51255Y20849D01*
X-51262Y20864D01*
X-51270Y20871D01*
X-51315Y20931D01*
X-51368Y20992D01*
X-51480Y21104D01*
X-51533Y21157D01*
X-51578Y21195D01*
X-51608Y21217D01*
X-51616Y21225D01*
X-51721Y21300D01*
X-51834Y21383D01*
X-51954Y21465D01*
X-52067Y21548D01*
X-52172Y21616D01*
X-52255Y21668D01*
X-52285Y21691D01*
X-52307Y21706D01*
X-52323Y21721D01*
X-52330D01*
X-53413Y22405D01*
Y23262D01*
X-51999Y22367D01*
D02*
G37*
G36*
X39443Y95459D02*
X39315Y95384D01*
X39195Y95301D01*
X39074Y95204D01*
X38969Y95113D01*
X38879Y95023D01*
X38804Y94955D01*
X38781Y94925D01*
X38758Y94903D01*
X38751Y94895D01*
X38744Y94888D01*
X38616Y94730D01*
X38495Y94572D01*
X38390Y94422D01*
X38307Y94271D01*
X38232Y94143D01*
X38202Y94091D01*
X38180Y94046D01*
X38157Y94008D01*
X38149Y93978D01*
X38135Y93963D01*
Y93955D01*
X37518D01*
X37563Y94068D01*
X37616Y94181D01*
X37668Y94294D01*
X37721Y94399D01*
X37766Y94489D01*
X37804Y94565D01*
X37834Y94610D01*
X37841Y94617D01*
Y94625D01*
X37924Y94760D01*
X38007Y94880D01*
X38082Y94986D01*
X38149Y95068D01*
X38202Y95143D01*
X38247Y95189D01*
X38277Y95226D01*
X38285Y95234D01*
X34217D01*
Y95873D01*
X39443D01*
Y95459D01*
D02*
G37*
G36*
X35894Y92775D02*
X36044Y92745D01*
X36172Y92700D01*
X36293Y92655D01*
X36383Y92610D01*
X36450Y92565D01*
X36495Y92535D01*
X36511Y92527D01*
X36631Y92422D01*
X36728Y92309D01*
X36811Y92181D01*
X36879Y92068D01*
X36932Y91963D01*
X36962Y91873D01*
X36977Y91843D01*
X36984Y91820D01*
X36992Y91805D01*
Y91798D01*
X37067Y91925D01*
X37142Y92038D01*
X37225Y92128D01*
X37300Y92204D01*
X37360Y92264D01*
X37420Y92309D01*
X37450Y92331D01*
X37465Y92339D01*
X37578Y92399D01*
X37683Y92444D01*
X37789Y92482D01*
X37886Y92504D01*
X37969Y92520D01*
X38037Y92527D01*
X38074D01*
X38089D01*
X38217Y92520D01*
X38345Y92497D01*
X38458Y92459D01*
X38563Y92422D01*
X38653Y92384D01*
X38713Y92347D01*
X38758Y92324D01*
X38774Y92317D01*
X38886Y92234D01*
X38992Y92144D01*
X39074Y92046D01*
X39142Y91956D01*
X39195Y91880D01*
X39232Y91813D01*
X39255Y91768D01*
X39262Y91760D01*
Y91753D01*
X39315Y91610D01*
X39352Y91452D01*
X39383Y91294D01*
X39398Y91144D01*
X39413Y91008D01*
Y90948D01*
X39420Y90896D01*
Y88850D01*
X34217D01*
Y90835D01*
X34225Y91016D01*
X34232Y91174D01*
X34248Y91316D01*
X34262Y91437D01*
X34278Y91535D01*
X34285Y91610D01*
X34300Y91655D01*
Y91670D01*
X34338Y91798D01*
X34375Y91903D01*
X34420Y92001D01*
X34465Y92083D01*
X34496Y92151D01*
X34526Y92204D01*
X34548Y92234D01*
X34556Y92241D01*
X34623Y92324D01*
X34706Y92399D01*
X34789Y92459D01*
X34864Y92520D01*
X34939Y92565D01*
X34992Y92595D01*
X35029Y92617D01*
X35044Y92625D01*
X35165Y92677D01*
X35285Y92715D01*
X35398Y92745D01*
X35503Y92760D01*
X35593Y92775D01*
X35668Y92783D01*
X35714D01*
X35721D01*
X35729D01*
X35894Y92775D01*
D02*
G37*
G36*
X39420Y84467D02*
X34217D01*
Y85159D01*
X36578D01*
Y87602D01*
X37195D01*
Y85159D01*
X38804D01*
Y87986D01*
X39420D01*
Y84467D01*
D02*
G37*
G36*
X39255Y107877D02*
X38842D01*
X38767Y108005D01*
X38684Y108125D01*
X38586Y108246D01*
X38496Y108351D01*
X38406Y108441D01*
X38338Y108516D01*
X38308Y108539D01*
X38285Y108561D01*
X38278Y108569D01*
X38270Y108577D01*
X38112Y108704D01*
X37955Y108825D01*
X37804Y108930D01*
X37654Y109013D01*
X37526Y109088D01*
X37473Y109118D01*
X37428Y109140D01*
X37391Y109163D01*
X37361Y109171D01*
X37346Y109186D01*
X37338D01*
Y109802D01*
X37451Y109757D01*
X37564Y109704D01*
X37676Y109652D01*
X37782Y109599D01*
X37872Y109554D01*
X37947Y109516D01*
X37992Y109486D01*
X38000Y109479D01*
X38007D01*
X38142Y109396D01*
X38263Y109313D01*
X38368Y109238D01*
X38451Y109171D01*
X38526Y109118D01*
X38571Y109073D01*
X38609Y109043D01*
X38616Y109035D01*
Y113103D01*
X39255D01*
Y107877D01*
D02*
G37*
G36*
X33910Y113095D02*
X34067Y113088D01*
X34210Y113073D01*
X34331Y113057D01*
X34436Y113042D01*
X34511Y113035D01*
X34534Y113027D01*
X34556Y113020D01*
X34571D01*
X34707Y112982D01*
X34827Y112937D01*
X34932Y112900D01*
X35022Y112854D01*
X35098Y112817D01*
X35150Y112787D01*
X35180Y112764D01*
X35195Y112757D01*
X35293Y112689D01*
X35376Y112606D01*
X35459Y112531D01*
X35526Y112456D01*
X35586Y112388D01*
X35631Y112336D01*
X35661Y112298D01*
X35669Y112283D01*
X35744Y112163D01*
X35819Y112035D01*
X35879Y111915D01*
X35925Y111794D01*
X35970Y111689D01*
X36000Y111607D01*
X36007Y111576D01*
X36015Y111554D01*
X36022Y111539D01*
Y111531D01*
X36067Y111351D01*
X36105Y111170D01*
X36128Y110997D01*
X36150Y110832D01*
X36158Y110689D01*
Y110629D01*
X36165Y110576D01*
Y110539D01*
Y110501D01*
Y110486D01*
Y110479D01*
X36158Y110223D01*
X36135Y109990D01*
X36098Y109780D01*
X36082Y109682D01*
X36060Y109599D01*
X36037Y109516D01*
X36022Y109449D01*
X36007Y109389D01*
X35985Y109336D01*
X35977Y109291D01*
X35962Y109261D01*
X35955Y109246D01*
Y109238D01*
X35872Y109043D01*
X35774Y108870D01*
X35669Y108719D01*
X35571Y108592D01*
X35481Y108486D01*
X35406Y108411D01*
X35376Y108389D01*
X35353Y108366D01*
X35346Y108358D01*
X35338Y108351D01*
X35218Y108253D01*
X35090Y108178D01*
X34962Y108110D01*
X34842Y108058D01*
X34737Y108020D01*
X34654Y107998D01*
X34624Y107983D01*
X34601D01*
X34586Y107975D01*
X34579D01*
X34451Y107952D01*
X34301Y107930D01*
X34150Y107915D01*
X34000Y107907D01*
X33865Y107900D01*
X31865D01*
Y113103D01*
X33737D01*
X33910Y113095D01*
D02*
G37*
G36*
X33865Y68724D02*
X34007Y68709D01*
X34143Y68694D01*
X34271Y68664D01*
X34391Y68626D01*
X34504Y68589D01*
X34609Y68551D01*
X34707Y68506D01*
X34789Y68468D01*
X34872Y68431D01*
X34932Y68393D01*
X34992Y68356D01*
X35030Y68326D01*
X35068Y68311D01*
X35082Y68295D01*
X35090Y68288D01*
X35195Y68198D01*
X35285Y68108D01*
X35368Y68002D01*
X35451Y67897D01*
X35586Y67687D01*
X35691Y67476D01*
X35737Y67378D01*
X35774Y67288D01*
X35804Y67205D01*
X35827Y67138D01*
X35849Y67077D01*
X35864Y67032D01*
X35872Y67002D01*
Y66995D01*
X35180Y66822D01*
X35150Y66942D01*
X35113Y67055D01*
X35075Y67160D01*
X35037Y67258D01*
X34992Y67348D01*
X34947Y67423D01*
X34895Y67499D01*
X34850Y67566D01*
X34812Y67626D01*
X34767Y67671D01*
X34729Y67717D01*
X34699Y67754D01*
X34669Y67777D01*
X34646Y67799D01*
X34639Y67807D01*
X34631Y67814D01*
X34556Y67874D01*
X34474Y67920D01*
X34308Y68002D01*
X34150Y68062D01*
X33992Y68100D01*
X33857Y68130D01*
X33804Y68138D01*
X33752D01*
X33707Y68145D01*
X33654D01*
X33481Y68138D01*
X33316Y68108D01*
X33165Y68070D01*
X33030Y68025D01*
X32925Y67980D01*
X32880Y67957D01*
X32842Y67942D01*
X32812Y67927D01*
X32789Y67912D01*
X32774Y67905D01*
X32767D01*
X32624Y67799D01*
X32504Y67687D01*
X32399Y67559D01*
X32316Y67438D01*
X32248Y67333D01*
X32203Y67243D01*
X32188Y67205D01*
X32173Y67183D01*
X32165Y67168D01*
Y67160D01*
X32105Y66965D01*
X32060Y66769D01*
X32023Y66574D01*
X32000Y66393D01*
X31992Y66311D01*
X31985Y66235D01*
Y66168D01*
X31977Y66115D01*
Y66070D01*
Y66033D01*
Y66010D01*
Y66002D01*
X31985Y65807D01*
X32000Y65627D01*
X32030Y65461D01*
X32060Y65311D01*
X32083Y65183D01*
X32098Y65130D01*
X32113Y65085D01*
X32120Y65048D01*
X32128Y65025D01*
X32135Y65010D01*
Y65002D01*
X32211Y64830D01*
X32293Y64672D01*
X32383Y64544D01*
X32481Y64431D01*
X32564Y64341D01*
X32631Y64281D01*
X32684Y64243D01*
X32692Y64228D01*
X32699D01*
X32857Y64130D01*
X33030Y64055D01*
X33195Y64002D01*
X33353Y63972D01*
X33496Y63950D01*
X33556Y63942D01*
X33609D01*
X33647Y63935D01*
X33707D01*
X33895Y63942D01*
X34067Y63972D01*
X34210Y64018D01*
X34338Y64063D01*
X34436Y64115D01*
X34511Y64153D01*
X34556Y64183D01*
X34571Y64198D01*
X34692Y64311D01*
X34804Y64439D01*
X34895Y64574D01*
X34970Y64709D01*
X35030Y64830D01*
X35052Y64890D01*
X35068Y64935D01*
X35082Y64972D01*
X35098Y65002D01*
X35105Y65017D01*
Y65025D01*
X35782Y64867D01*
X35737Y64732D01*
X35691Y64612D01*
X35631Y64499D01*
X35579Y64386D01*
X35519Y64288D01*
X35451Y64198D01*
X35391Y64108D01*
X35331Y64033D01*
X35271Y63972D01*
X35218Y63912D01*
X35165Y63860D01*
X35128Y63822D01*
X35090Y63784D01*
X35060Y63762D01*
X35045Y63754D01*
X35037Y63747D01*
X34932Y63679D01*
X34827Y63612D01*
X34722Y63559D01*
X34609Y63514D01*
X34383Y63446D01*
X34180Y63401D01*
X34083Y63379D01*
X34000Y63371D01*
X33917Y63363D01*
X33849Y63356D01*
X33797Y63348D01*
X33722D01*
X33474Y63363D01*
X33233Y63401D01*
X33022Y63446D01*
X32925Y63476D01*
X32834Y63506D01*
X32752Y63536D01*
X32677Y63566D01*
X32617Y63589D01*
X32556Y63612D01*
X32519Y63634D01*
X32489Y63649D01*
X32466Y63657D01*
X32459Y63664D01*
X32256Y63792D01*
X32083Y63942D01*
X31932Y64093D01*
X31804Y64243D01*
X31707Y64378D01*
X31669Y64439D01*
X31639Y64491D01*
X31609Y64529D01*
X31594Y64559D01*
X31586Y64581D01*
X31579Y64589D01*
X31474Y64822D01*
X31398Y65063D01*
X31346Y65303D01*
X31308Y65521D01*
X31293Y65619D01*
X31286Y65717D01*
X31278Y65792D01*
Y65867D01*
X31271Y65920D01*
Y65965D01*
Y65995D01*
Y66002D01*
X31286Y66273D01*
X31316Y66536D01*
X31353Y66769D01*
X31384Y66882D01*
X31406Y66980D01*
X31429Y67070D01*
X31459Y67153D01*
X31481Y67228D01*
X31496Y67288D01*
X31519Y67333D01*
X31526Y67371D01*
X31541Y67393D01*
Y67401D01*
X31654Y67626D01*
X31782Y67829D01*
X31917Y68002D01*
X31985Y68070D01*
X32045Y68138D01*
X32105Y68198D01*
X32165Y68250D01*
X32218Y68295D01*
X32263Y68326D01*
X32293Y68356D01*
X32323Y68378D01*
X32338Y68386D01*
X32346Y68393D01*
X32451Y68453D01*
X32556Y68506D01*
X32782Y68589D01*
X33008Y68649D01*
X33226Y68686D01*
X33331Y68702D01*
X33421Y68717D01*
X33504Y68724D01*
X33571D01*
X33631Y68732D01*
X33714D01*
X33865Y68724D01*
D02*
G37*
G36*
X39142Y67393D02*
X39849D01*
Y66807D01*
X39142D01*
Y63439D01*
X38624D01*
X36240Y66807D01*
Y67393D01*
X38503D01*
Y68641D01*
X39142D01*
Y67393D01*
D02*
G37*
G36*
X73223Y31894D02*
X73366Y31879D01*
X73502Y31864D01*
X73629Y31834D01*
X73750Y31796D01*
X73862Y31759D01*
X73968Y31721D01*
X74065Y31676D01*
X74148Y31638D01*
X74231Y31601D01*
X74291Y31563D01*
X74351Y31526D01*
X74389Y31496D01*
X74426Y31481D01*
X74441Y31465D01*
X74449Y31458D01*
X74554Y31368D01*
X74644Y31278D01*
X74727Y31172D01*
X74810Y31067D01*
X74945Y30856D01*
X75050Y30646D01*
X75095Y30548D01*
X75133Y30458D01*
X75163Y30375D01*
X75186Y30308D01*
X75208Y30247D01*
X75223Y30202D01*
X75231Y30172D01*
Y30165D01*
X74539Y29992D01*
X74509Y30112D01*
X74471Y30225D01*
X74434Y30330D01*
X74396Y30428D01*
X74351Y30518D01*
X74306Y30593D01*
X74253Y30669D01*
X74208Y30736D01*
X74171Y30796D01*
X74125Y30842D01*
X74088Y30887D01*
X74058Y30924D01*
X74028Y30947D01*
X74005Y30969D01*
X73998Y30977D01*
X73990Y30984D01*
X73915Y31044D01*
X73832Y31090D01*
X73667Y31172D01*
X73509Y31232D01*
X73351Y31270D01*
X73216Y31300D01*
X73163Y31308D01*
X73110D01*
X73065Y31315D01*
X73013D01*
X72840Y31308D01*
X72674Y31278D01*
X72524Y31240D01*
X72389Y31195D01*
X72284Y31150D01*
X72238Y31127D01*
X72201Y31112D01*
X72171Y31097D01*
X72148Y31082D01*
X72133Y31075D01*
X72126D01*
X71983Y30969D01*
X71862Y30856D01*
X71757Y30729D01*
X71674Y30608D01*
X71607Y30503D01*
X71562Y30413D01*
X71547Y30375D01*
X71532Y30353D01*
X71524Y30338D01*
Y30330D01*
X71464Y30135D01*
X71419Y29939D01*
X71381Y29744D01*
X71359Y29563D01*
X71351Y29481D01*
X71344Y29406D01*
Y29338D01*
X71336Y29285D01*
Y29240D01*
Y29202D01*
Y29180D01*
Y29172D01*
X71344Y28977D01*
X71359Y28797D01*
X71389Y28631D01*
X71419Y28481D01*
X71441Y28353D01*
X71456Y28300D01*
X71472Y28255D01*
X71479Y28218D01*
X71487Y28195D01*
X71494Y28180D01*
Y28173D01*
X71569Y27999D01*
X71652Y27842D01*
X71742Y27714D01*
X71840Y27601D01*
X71923Y27511D01*
X71990Y27451D01*
X72043Y27413D01*
X72050Y27398D01*
X72058D01*
X72216Y27300D01*
X72389Y27225D01*
X72554Y27173D01*
X72712Y27142D01*
X72855Y27120D01*
X72915Y27112D01*
X72968D01*
X73005Y27105D01*
X73065D01*
X73253Y27112D01*
X73426Y27142D01*
X73569Y27188D01*
X73697Y27233D01*
X73795Y27285D01*
X73870Y27323D01*
X73915Y27353D01*
X73930Y27368D01*
X74050Y27481D01*
X74163Y27609D01*
X74253Y27744D01*
X74328Y27879D01*
X74389Y27999D01*
X74411Y28060D01*
X74426Y28105D01*
X74441Y28142D01*
X74456Y28173D01*
X74464Y28187D01*
Y28195D01*
X75141Y28037D01*
X75095Y27902D01*
X75050Y27782D01*
X74990Y27669D01*
X74938Y27556D01*
X74877Y27458D01*
X74810Y27368D01*
X74749Y27278D01*
X74689Y27203D01*
X74629Y27142D01*
X74577Y27082D01*
X74524Y27030D01*
X74486Y26992D01*
X74449Y26955D01*
X74419Y26932D01*
X74404Y26924D01*
X74396Y26917D01*
X74291Y26849D01*
X74186Y26782D01*
X74080Y26729D01*
X73968Y26684D01*
X73742Y26616D01*
X73539Y26571D01*
X73441Y26549D01*
X73359Y26541D01*
X73276Y26533D01*
X73208Y26526D01*
X73156Y26518D01*
X73080D01*
X72832Y26533D01*
X72592Y26571D01*
X72381Y26616D01*
X72284Y26646D01*
X72193Y26676D01*
X72111Y26706D01*
X72035Y26736D01*
X71975Y26759D01*
X71915Y26782D01*
X71877Y26804D01*
X71847Y26819D01*
X71825Y26827D01*
X71817Y26834D01*
X71614Y26962D01*
X71441Y27112D01*
X71291Y27263D01*
X71163Y27413D01*
X71066Y27548D01*
X71028Y27609D01*
X70998Y27661D01*
X70968Y27699D01*
X70953Y27729D01*
X70945Y27751D01*
X70938Y27759D01*
X70832Y27992D01*
X70757Y28233D01*
X70705Y28473D01*
X70667Y28691D01*
X70652Y28789D01*
X70644Y28887D01*
X70637Y28962D01*
Y29037D01*
X70629Y29090D01*
Y29135D01*
Y29165D01*
Y29172D01*
X70644Y29443D01*
X70675Y29706D01*
X70712Y29939D01*
X70742Y30052D01*
X70765Y30150D01*
X70787Y30240D01*
X70817Y30323D01*
X70840Y30398D01*
X70855Y30458D01*
X70877Y30503D01*
X70885Y30541D01*
X70900Y30563D01*
Y30571D01*
X71013Y30796D01*
X71141Y30999D01*
X71276Y31172D01*
X71344Y31240D01*
X71404Y31308D01*
X71464Y31368D01*
X71524Y31420D01*
X71577Y31465D01*
X71622Y31496D01*
X71652Y31526D01*
X71682Y31548D01*
X71697Y31556D01*
X71705Y31563D01*
X71810Y31623D01*
X71915Y31676D01*
X72141Y31759D01*
X72366Y31819D01*
X72584Y31857D01*
X72689Y31872D01*
X72780Y31887D01*
X72862Y31894D01*
X72930D01*
X72990Y31902D01*
X73073D01*
X73223Y31894D01*
D02*
G37*
G36*
X77614D02*
X77742Y31879D01*
X77870Y31857D01*
X77990Y31826D01*
X78103Y31789D01*
X78200Y31751D01*
X78298Y31706D01*
X78381Y31661D01*
X78464Y31623D01*
X78531Y31578D01*
X78591Y31541D01*
X78636Y31503D01*
X78674Y31473D01*
X78704Y31451D01*
X78719Y31435D01*
X78727Y31428D01*
X78817Y31338D01*
X78892Y31240D01*
X78960Y31142D01*
X79020Y31044D01*
X79065Y30954D01*
X79110Y30856D01*
X79170Y30676D01*
X79185Y30593D01*
X79200Y30518D01*
X79215Y30450D01*
X79223Y30390D01*
X79230Y30345D01*
Y30308D01*
Y30285D01*
Y30278D01*
X79223Y30097D01*
X79193Y29932D01*
X79148Y29789D01*
X79103Y29669D01*
X79058Y29571D01*
X79012Y29496D01*
X78982Y29451D01*
X78975Y29436D01*
X78870Y29323D01*
X78757Y29225D01*
X78636Y29150D01*
X78516Y29090D01*
X78411Y29045D01*
X78328Y29014D01*
X78298Y29007D01*
X78276Y29000D01*
X78261Y28992D01*
X78253D01*
X78381Y28924D01*
X78486Y28857D01*
X78576Y28781D01*
X78652Y28714D01*
X78712Y28654D01*
X78757Y28601D01*
X78779Y28571D01*
X78787Y28556D01*
X78847Y28451D01*
X78892Y28345D01*
X78930Y28240D01*
X78952Y28142D01*
X78967Y28060D01*
X78975Y27999D01*
Y27954D01*
Y27939D01*
X78967Y27812D01*
X78945Y27684D01*
X78915Y27571D01*
X78877Y27473D01*
X78840Y27390D01*
X78809Y27323D01*
X78787Y27285D01*
X78779Y27270D01*
X78704Y27157D01*
X78614Y27060D01*
X78524Y26977D01*
X78433Y26902D01*
X78358Y26849D01*
X78291Y26804D01*
X78246Y26782D01*
X78238Y26774D01*
X78231D01*
X78095Y26714D01*
X77960Y26669D01*
X77825Y26631D01*
X77704Y26609D01*
X77607Y26594D01*
X77524Y26586D01*
X77336D01*
X77231Y26601D01*
X77028Y26639D01*
X76855Y26699D01*
X76704Y26759D01*
X76637Y26797D01*
X76584Y26827D01*
X76531Y26857D01*
X76494Y26887D01*
X76464Y26909D01*
X76441Y26924D01*
X76426Y26932D01*
X76419Y26939D01*
X76276Y27082D01*
X76163Y27240D01*
X76073Y27406D01*
X75998Y27571D01*
X75953Y27714D01*
X75930Y27774D01*
X75915Y27827D01*
X75907Y27872D01*
X75900Y27902D01*
X75892Y27924D01*
Y27932D01*
X76531Y28045D01*
X76561Y27879D01*
X76607Y27736D01*
X76659Y27616D01*
X76712Y27518D01*
X76764Y27443D01*
X76810Y27390D01*
X76840Y27353D01*
X76847Y27345D01*
X76945Y27270D01*
X77050Y27210D01*
X77148Y27173D01*
X77246Y27142D01*
X77336Y27127D01*
X77403Y27112D01*
X77464D01*
X77599Y27120D01*
X77719Y27150D01*
X77825Y27188D01*
X77915Y27225D01*
X77982Y27270D01*
X78035Y27308D01*
X78073Y27338D01*
X78080Y27345D01*
X78163Y27436D01*
X78223Y27533D01*
X78261Y27631D01*
X78291Y27721D01*
X78306Y27804D01*
X78321Y27864D01*
Y27909D01*
Y27917D01*
Y27924D01*
Y28007D01*
X78306Y28082D01*
X78268Y28210D01*
X78215Y28323D01*
X78155Y28421D01*
X78095Y28488D01*
X78043Y28541D01*
X78005Y28571D01*
X77997Y28579D01*
X77990D01*
X77862Y28646D01*
X77742Y28699D01*
X77614Y28736D01*
X77501Y28759D01*
X77403Y28774D01*
X77321Y28789D01*
X77223D01*
X77193Y28781D01*
X77155D01*
X77080Y29345D01*
X77178Y29323D01*
X77268Y29308D01*
X77343Y29293D01*
X77411Y29285D01*
X77464Y29278D01*
X77531D01*
X77689Y29293D01*
X77832Y29323D01*
X77960Y29368D01*
X78065Y29420D01*
X78148Y29473D01*
X78208Y29518D01*
X78246Y29548D01*
X78261Y29563D01*
X78358Y29676D01*
X78433Y29796D01*
X78486Y29917D01*
X78516Y30037D01*
X78539Y30135D01*
X78546Y30217D01*
X78554Y30247D01*
Y30270D01*
Y30285D01*
Y30293D01*
X78539Y30458D01*
X78501Y30608D01*
X78456Y30736D01*
X78396Y30849D01*
X78336Y30939D01*
X78291Y31007D01*
X78253Y31052D01*
X78238Y31067D01*
X78118Y31172D01*
X77990Y31247D01*
X77862Y31300D01*
X77742Y31338D01*
X77637Y31360D01*
X77554Y31368D01*
X77524Y31375D01*
X77479D01*
X77343Y31368D01*
X77215Y31338D01*
X77103Y31300D01*
X77013Y31255D01*
X76937Y31217D01*
X76877Y31180D01*
X76847Y31150D01*
X76832Y31142D01*
X76742Y31037D01*
X76667Y30917D01*
X76599Y30789D01*
X76546Y30654D01*
X76509Y30541D01*
X76494Y30488D01*
X76486Y30443D01*
X76479Y30405D01*
X76471Y30375D01*
X76464Y30360D01*
Y30353D01*
X75825Y30436D01*
X75840Y30556D01*
X75862Y30669D01*
X75930Y30879D01*
X76013Y31060D01*
X76058Y31135D01*
X76103Y31210D01*
X76148Y31278D01*
X76193Y31330D01*
X76231Y31383D01*
X76268Y31420D01*
X76291Y31451D01*
X76313Y31473D01*
X76328Y31488D01*
X76336Y31496D01*
X76426Y31563D01*
X76516Y31631D01*
X76607Y31684D01*
X76704Y31729D01*
X76892Y31804D01*
X77073Y31849D01*
X77155Y31864D01*
X77231Y31879D01*
X77298Y31887D01*
X77358Y31894D01*
X77403Y31902D01*
X77471D01*
X77614Y31894D01*
D02*
G37*
G36*
X84680Y54754D02*
X84822Y54739D01*
X84958Y54724D01*
X85086Y54694D01*
X85206Y54656D01*
X85319Y54619D01*
X85424Y54581D01*
X85522Y54536D01*
X85604Y54498D01*
X85687Y54461D01*
X85747Y54423D01*
X85807Y54386D01*
X85845Y54356D01*
X85883Y54341D01*
X85898Y54325D01*
X85905Y54318D01*
X86010Y54228D01*
X86101Y54138D01*
X86183Y54032D01*
X86266Y53927D01*
X86401Y53717D01*
X86507Y53506D01*
X86552Y53408D01*
X86589Y53318D01*
X86619Y53235D01*
X86642Y53168D01*
X86664Y53108D01*
X86679Y53062D01*
X86687Y53032D01*
Y53025D01*
X85995Y52852D01*
X85965Y52972D01*
X85928Y53085D01*
X85890Y53190D01*
X85852Y53288D01*
X85807Y53378D01*
X85762Y53453D01*
X85710Y53529D01*
X85665Y53596D01*
X85627Y53656D01*
X85582Y53702D01*
X85544Y53747D01*
X85514Y53784D01*
X85484Y53807D01*
X85462Y53829D01*
X85454Y53837D01*
X85447Y53844D01*
X85371Y53905D01*
X85289Y53950D01*
X85123Y54032D01*
X84965Y54092D01*
X84807Y54130D01*
X84672Y54160D01*
X84619Y54168D01*
X84567D01*
X84522Y54175D01*
X84469D01*
X84296Y54168D01*
X84131Y54138D01*
X83980Y54100D01*
X83845Y54055D01*
X83740Y54010D01*
X83695Y53987D01*
X83657Y53972D01*
X83627Y53957D01*
X83604Y53942D01*
X83589Y53935D01*
X83582D01*
X83439Y53829D01*
X83319Y53717D01*
X83214Y53589D01*
X83131Y53468D01*
X83063Y53363D01*
X83018Y53273D01*
X83003Y53235D01*
X82988Y53213D01*
X82980Y53198D01*
Y53190D01*
X82920Y52995D01*
X82875Y52799D01*
X82838Y52604D01*
X82815Y52423D01*
X82808Y52341D01*
X82800Y52266D01*
Y52198D01*
X82793Y52145D01*
Y52100D01*
Y52063D01*
Y52040D01*
Y52032D01*
X82800Y51837D01*
X82815Y51656D01*
X82845Y51491D01*
X82875Y51341D01*
X82898Y51213D01*
X82913Y51160D01*
X82928Y51115D01*
X82935Y51078D01*
X82943Y51055D01*
X82950Y51040D01*
Y51033D01*
X83026Y50859D01*
X83108Y50702D01*
X83198Y50574D01*
X83296Y50461D01*
X83379Y50371D01*
X83447Y50311D01*
X83499Y50273D01*
X83507Y50258D01*
X83514D01*
X83672Y50160D01*
X83845Y50085D01*
X84010Y50033D01*
X84168Y50002D01*
X84311Y49980D01*
X84371Y49972D01*
X84424D01*
X84462Y49965D01*
X84522D01*
X84710Y49972D01*
X84883Y50002D01*
X85025Y50048D01*
X85153Y50093D01*
X85251Y50145D01*
X85326Y50183D01*
X85371Y50213D01*
X85386Y50228D01*
X85507Y50341D01*
X85619Y50469D01*
X85710Y50604D01*
X85785Y50739D01*
X85845Y50859D01*
X85868Y50920D01*
X85883Y50965D01*
X85898Y51002D01*
X85913Y51033D01*
X85920Y51048D01*
Y51055D01*
X86597Y50897D01*
X86552Y50762D01*
X86507Y50641D01*
X86446Y50529D01*
X86394Y50416D01*
X86334Y50318D01*
X86266Y50228D01*
X86206Y50138D01*
X86146Y50063D01*
X86086Y50002D01*
X86033Y49942D01*
X85980Y49890D01*
X85943Y49852D01*
X85905Y49815D01*
X85875Y49792D01*
X85860Y49784D01*
X85852Y49777D01*
X85747Y49709D01*
X85642Y49642D01*
X85537Y49589D01*
X85424Y49544D01*
X85198Y49476D01*
X84995Y49431D01*
X84898Y49408D01*
X84815Y49401D01*
X84732Y49393D01*
X84664Y49386D01*
X84612Y49378D01*
X84537D01*
X84289Y49393D01*
X84048Y49431D01*
X83837Y49476D01*
X83740Y49506D01*
X83650Y49536D01*
X83567Y49566D01*
X83492Y49596D01*
X83432Y49619D01*
X83371Y49642D01*
X83334Y49664D01*
X83304Y49679D01*
X83281Y49687D01*
X83274Y49694D01*
X83071Y49822D01*
X82898Y49972D01*
X82747Y50123D01*
X82619Y50273D01*
X82522Y50408D01*
X82484Y50469D01*
X82454Y50521D01*
X82424Y50559D01*
X82409Y50589D01*
X82402Y50611D01*
X82394Y50619D01*
X82289Y50852D01*
X82214Y51093D01*
X82161Y51333D01*
X82123Y51551D01*
X82108Y51649D01*
X82101Y51747D01*
X82093Y51822D01*
Y51897D01*
X82086Y51950D01*
Y51995D01*
Y52025D01*
Y52032D01*
X82101Y52303D01*
X82131Y52566D01*
X82168Y52799D01*
X82198Y52912D01*
X82221Y53010D01*
X82244Y53100D01*
X82274Y53183D01*
X82296Y53258D01*
X82311Y53318D01*
X82334Y53363D01*
X82341Y53401D01*
X82356Y53423D01*
Y53431D01*
X82469Y53656D01*
X82597Y53859D01*
X82732Y54032D01*
X82800Y54100D01*
X82860Y54168D01*
X82920Y54228D01*
X82980Y54280D01*
X83033Y54325D01*
X83078Y54356D01*
X83108Y54386D01*
X83138Y54408D01*
X83153Y54416D01*
X83161Y54423D01*
X83266Y54483D01*
X83371Y54536D01*
X83597Y54619D01*
X83822Y54679D01*
X84040Y54717D01*
X84146Y54731D01*
X84236Y54747D01*
X84319Y54754D01*
X84386D01*
X84446Y54762D01*
X84529D01*
X84680Y54754D01*
D02*
G37*
G36*
X90634Y54055D02*
X88070D01*
X88161Y53927D01*
X88206Y53874D01*
X88243Y53822D01*
X88281Y53777D01*
X88311Y53747D01*
X88334Y53724D01*
X88341Y53717D01*
X88379Y53679D01*
X88424Y53641D01*
X88529Y53544D01*
X88649Y53431D01*
X88777Y53318D01*
X88897Y53220D01*
X88950Y53175D01*
X88995Y53130D01*
X89033Y53100D01*
X89063Y53078D01*
X89078Y53062D01*
X89085Y53055D01*
X89206Y52950D01*
X89326Y52852D01*
X89431Y52754D01*
X89529Y52671D01*
X89619Y52589D01*
X89694Y52514D01*
X89769Y52446D01*
X89830Y52386D01*
X89890Y52326D01*
X89935Y52281D01*
X89972Y52243D01*
X90010Y52205D01*
X90048Y52160D01*
X90063Y52145D01*
X90168Y52017D01*
X90258Y51905D01*
X90333Y51792D01*
X90394Y51702D01*
X90439Y51619D01*
X90469Y51559D01*
X90484Y51521D01*
X90491Y51506D01*
X90536Y51393D01*
X90567Y51281D01*
X90597Y51175D01*
X90612Y51085D01*
X90619Y51002D01*
X90627Y50942D01*
Y50905D01*
Y50890D01*
X90619Y50777D01*
X90604Y50672D01*
X90589Y50566D01*
X90559Y50476D01*
X90484Y50296D01*
X90409Y50153D01*
X90364Y50085D01*
X90326Y50033D01*
X90288Y49980D01*
X90251Y49942D01*
X90221Y49912D01*
X90206Y49882D01*
X90191Y49875D01*
X90183Y49867D01*
X90100Y49792D01*
X90010Y49724D01*
X89912Y49672D01*
X89815Y49626D01*
X89619Y49551D01*
X89424Y49499D01*
X89341Y49484D01*
X89258Y49469D01*
X89183Y49461D01*
X89123Y49454D01*
X89070Y49446D01*
X88995D01*
X88860Y49454D01*
X88732Y49461D01*
X88612Y49484D01*
X88499Y49506D01*
X88394Y49536D01*
X88296Y49566D01*
X88206Y49604D01*
X88123Y49642D01*
X88048Y49679D01*
X87988Y49717D01*
X87935Y49747D01*
X87890Y49777D01*
X87852Y49799D01*
X87830Y49822D01*
X87815Y49830D01*
X87807Y49837D01*
X87732Y49912D01*
X87664Y49995D01*
X87597Y50085D01*
X87544Y50175D01*
X87454Y50356D01*
X87394Y50536D01*
X87371Y50619D01*
X87349Y50702D01*
X87334Y50769D01*
X87318Y50830D01*
X87311Y50882D01*
Y50920D01*
X87303Y50942D01*
Y50950D01*
X87958Y51017D01*
X87973Y50844D01*
X88003Y50694D01*
X88048Y50559D01*
X88101Y50454D01*
X88146Y50363D01*
X88191Y50303D01*
X88221Y50266D01*
X88236Y50251D01*
X88349Y50160D01*
X88469Y50093D01*
X88597Y50040D01*
X88709Y50010D01*
X88815Y49987D01*
X88905Y49980D01*
X88935Y49972D01*
X88980D01*
X89138Y49980D01*
X89281Y50010D01*
X89401Y50055D01*
X89506Y50100D01*
X89589Y50153D01*
X89642Y50190D01*
X89679Y50220D01*
X89694Y50236D01*
X89785Y50341D01*
X89852Y50446D01*
X89905Y50551D01*
X89935Y50656D01*
X89958Y50739D01*
X89965Y50814D01*
X89972Y50859D01*
Y50867D01*
Y50875D01*
X89958Y51010D01*
X89927Y51153D01*
X89875Y51281D01*
X89822Y51401D01*
X89762Y51499D01*
X89709Y51581D01*
X89694Y51611D01*
X89679Y51634D01*
X89664Y51642D01*
Y51649D01*
X89604Y51732D01*
X89529Y51814D01*
X89446Y51905D01*
X89356Y51995D01*
X89168Y52175D01*
X88980Y52356D01*
X88882Y52438D01*
X88800Y52514D01*
X88717Y52581D01*
X88649Y52641D01*
X88597Y52687D01*
X88552Y52724D01*
X88521Y52747D01*
X88514Y52754D01*
X88326Y52912D01*
X88153Y53062D01*
X88010Y53198D01*
X87898Y53310D01*
X87800Y53408D01*
X87732Y53476D01*
X87695Y53521D01*
X87679Y53529D01*
Y53536D01*
X87574Y53664D01*
X87492Y53784D01*
X87416Y53905D01*
X87356Y54010D01*
X87311Y54100D01*
X87281Y54168D01*
X87266Y54213D01*
X87258Y54220D01*
Y54228D01*
X87228Y54310D01*
X87213Y54386D01*
X87198Y54461D01*
X87191Y54528D01*
X87183Y54589D01*
Y54634D01*
Y54664D01*
Y54671D01*
X90634D01*
Y54055D01*
D02*
G37*
G36*
X73727Y20464D02*
X73870Y20449D01*
X74005Y20434D01*
X74133Y20404D01*
X74253Y20366D01*
X74366Y20329D01*
X74471Y20291D01*
X74569Y20246D01*
X74652Y20208D01*
X74735Y20171D01*
X74795Y20133D01*
X74855Y20096D01*
X74892Y20066D01*
X74930Y20051D01*
X74945Y20036D01*
X74953Y20028D01*
X75058Y19938D01*
X75148Y19848D01*
X75231Y19742D01*
X75313Y19637D01*
X75449Y19426D01*
X75554Y19216D01*
X75599Y19118D01*
X75637Y19028D01*
X75667Y18945D01*
X75689Y18878D01*
X75712Y18817D01*
X75727Y18772D01*
X75734Y18742D01*
Y18735D01*
X75043Y18562D01*
X75013Y18682D01*
X74975Y18795D01*
X74938Y18900D01*
X74900Y18998D01*
X74855Y19088D01*
X74810Y19163D01*
X74757Y19239D01*
X74712Y19306D01*
X74674Y19366D01*
X74629Y19411D01*
X74592Y19457D01*
X74562Y19494D01*
X74531Y19517D01*
X74509Y19539D01*
X74501Y19547D01*
X74494Y19554D01*
X74419Y19614D01*
X74336Y19660D01*
X74171Y19742D01*
X74013Y19802D01*
X73855Y19840D01*
X73720Y19870D01*
X73667Y19878D01*
X73614D01*
X73569Y19885D01*
X73517D01*
X73344Y19878D01*
X73178Y19848D01*
X73028Y19810D01*
X72892Y19765D01*
X72787Y19720D01*
X72742Y19697D01*
X72705Y19682D01*
X72674Y19667D01*
X72652Y19652D01*
X72637Y19645D01*
X72629D01*
X72487Y19539D01*
X72366Y19426D01*
X72261Y19299D01*
X72178Y19178D01*
X72111Y19073D01*
X72065Y18983D01*
X72050Y18945D01*
X72035Y18923D01*
X72028Y18908D01*
Y18900D01*
X71968Y18705D01*
X71923Y18509D01*
X71885Y18314D01*
X71862Y18133D01*
X71855Y18051D01*
X71847Y17975D01*
Y17908D01*
X71840Y17855D01*
Y17810D01*
Y17773D01*
Y17750D01*
Y17742D01*
X71847Y17547D01*
X71862Y17366D01*
X71892Y17201D01*
X71923Y17051D01*
X71945Y16923D01*
X71960Y16870D01*
X71975Y16825D01*
X71983Y16788D01*
X71990Y16765D01*
X71998Y16750D01*
Y16743D01*
X72073Y16569D01*
X72156Y16412D01*
X72246Y16284D01*
X72344Y16171D01*
X72426Y16081D01*
X72494Y16021D01*
X72547Y15983D01*
X72554Y15968D01*
X72562D01*
X72719Y15870D01*
X72892Y15795D01*
X73058Y15742D01*
X73216Y15712D01*
X73359Y15690D01*
X73419Y15682D01*
X73471D01*
X73509Y15675D01*
X73569D01*
X73757Y15682D01*
X73930Y15712D01*
X74073Y15758D01*
X74201Y15803D01*
X74298Y15855D01*
X74374Y15893D01*
X74419Y15923D01*
X74434Y15938D01*
X74554Y16051D01*
X74667Y16179D01*
X74757Y16314D01*
X74832Y16449D01*
X74892Y16569D01*
X74915Y16630D01*
X74930Y16675D01*
X74945Y16712D01*
X74960Y16743D01*
X74967Y16758D01*
Y16765D01*
X75644Y16607D01*
X75599Y16472D01*
X75554Y16351D01*
X75494Y16239D01*
X75441Y16126D01*
X75381Y16028D01*
X75313Y15938D01*
X75253Y15848D01*
X75193Y15773D01*
X75133Y15712D01*
X75080Y15652D01*
X75028Y15600D01*
X74990Y15562D01*
X74953Y15524D01*
X74922Y15502D01*
X74907Y15494D01*
X74900Y15487D01*
X74795Y15419D01*
X74689Y15352D01*
X74584Y15299D01*
X74471Y15254D01*
X74246Y15186D01*
X74043Y15141D01*
X73945Y15118D01*
X73862Y15111D01*
X73780Y15103D01*
X73712Y15096D01*
X73659Y15088D01*
X73584D01*
X73336Y15103D01*
X73095Y15141D01*
X72885Y15186D01*
X72787Y15216D01*
X72697Y15246D01*
X72614Y15276D01*
X72539Y15306D01*
X72479Y15329D01*
X72419Y15352D01*
X72381Y15374D01*
X72351Y15389D01*
X72329Y15397D01*
X72321Y15404D01*
X72118Y15532D01*
X71945Y15682D01*
X71795Y15833D01*
X71667Y15983D01*
X71569Y16118D01*
X71532Y16179D01*
X71502Y16231D01*
X71472Y16269D01*
X71456Y16299D01*
X71449Y16321D01*
X71441Y16329D01*
X71336Y16562D01*
X71261Y16803D01*
X71208Y17043D01*
X71171Y17261D01*
X71156Y17359D01*
X71148Y17457D01*
X71141Y17532D01*
Y17607D01*
X71133Y17660D01*
Y17705D01*
Y17735D01*
Y17742D01*
X71148Y18013D01*
X71178Y18276D01*
X71216Y18509D01*
X71246Y18622D01*
X71269Y18720D01*
X71291Y18810D01*
X71321Y18893D01*
X71344Y18968D01*
X71359Y19028D01*
X71381Y19073D01*
X71389Y19111D01*
X71404Y19133D01*
Y19141D01*
X71517Y19366D01*
X71644Y19569D01*
X71780Y19742D01*
X71847Y19810D01*
X71908Y19878D01*
X71968Y19938D01*
X72028Y19990D01*
X72080Y20036D01*
X72126Y20066D01*
X72156Y20096D01*
X72186Y20118D01*
X72201Y20126D01*
X72208Y20133D01*
X72313Y20193D01*
X72419Y20246D01*
X72644Y20329D01*
X72870Y20389D01*
X73088Y20426D01*
X73193Y20442D01*
X73283Y20457D01*
X73366Y20464D01*
X73434D01*
X73494Y20472D01*
X73577D01*
X73727Y20464D01*
D02*
G37*
G36*
X78727Y15156D02*
X78313D01*
X78238Y15284D01*
X78155Y15404D01*
X78058Y15524D01*
X77967Y15630D01*
X77877Y15720D01*
X77810Y15795D01*
X77779Y15818D01*
X77757Y15840D01*
X77749Y15848D01*
X77742Y15855D01*
X77584Y15983D01*
X77426Y16103D01*
X77276Y16209D01*
X77125Y16291D01*
X76997Y16366D01*
X76945Y16397D01*
X76900Y16419D01*
X76862Y16442D01*
X76832Y16449D01*
X76817Y16464D01*
X76810D01*
Y17081D01*
X76922Y17036D01*
X77035Y16983D01*
X77148Y16930D01*
X77253Y16878D01*
X77343Y16833D01*
X77418Y16795D01*
X77464Y16765D01*
X77471Y16758D01*
X77479D01*
X77614Y16675D01*
X77734Y16592D01*
X77840Y16517D01*
X77922Y16449D01*
X77997Y16397D01*
X78043Y16351D01*
X78080Y16321D01*
X78088Y16314D01*
Y20381D01*
X78727D01*
Y15156D01*
D02*
G37*
%LPC*%
G36*
X83772Y88156D02*
X83764D01*
X83757D01*
X83666Y88148D01*
X83576Y88133D01*
X83501Y88111D01*
X83433Y88088D01*
X83373Y88058D01*
X83328Y88035D01*
X83298Y88020D01*
X83291Y88013D01*
X83215Y87960D01*
X83148Y87893D01*
X83095Y87825D01*
X83050Y87757D01*
X83020Y87697D01*
X82997Y87652D01*
X82982Y87622D01*
X82975Y87607D01*
X82945Y87502D01*
X82922Y87381D01*
X82907Y87261D01*
X82900Y87141D01*
X82892Y87035D01*
X82885Y86945D01*
Y85396D01*
X84606D01*
Y87035D01*
X84599Y87238D01*
X84569Y87411D01*
X84531Y87562D01*
X84486Y87675D01*
X84441Y87772D01*
X84403Y87832D01*
X84373Y87870D01*
X84366Y87885D01*
X84268Y87975D01*
X84170Y88043D01*
X84065Y88088D01*
X83975Y88126D01*
X83884Y88141D01*
X83817Y88148D01*
X83772Y88156D01*
D02*
G37*
G36*
X-49623Y22142D02*
X-49631D01*
X-49638D01*
X-49729Y22134D01*
X-49819Y22119D01*
X-49894Y22097D01*
X-49962Y22074D01*
X-50022Y22044D01*
X-50067Y22022D01*
X-50097Y22007D01*
X-50104Y21999D01*
X-50180Y21946D01*
X-50247Y21879D01*
X-50300Y21811D01*
X-50345Y21744D01*
X-50375Y21683D01*
X-50398Y21638D01*
X-50413Y21608D01*
X-50420Y21593D01*
X-50450Y21488D01*
X-50473Y21368D01*
X-50488Y21247D01*
X-50496Y21127D01*
X-50503Y21022D01*
X-50511Y20931D01*
Y19383D01*
X-48789D01*
Y21022D01*
X-48796Y21225D01*
X-48826Y21398D01*
X-48864Y21548D01*
X-48909Y21661D01*
X-48954Y21758D01*
X-48992Y21819D01*
X-49022Y21856D01*
X-49029Y21871D01*
X-49127Y21962D01*
X-49225Y22029D01*
X-49330Y22074D01*
X-49420Y22112D01*
X-49511Y22127D01*
X-49578Y22134D01*
X-49623Y22142D01*
D02*
G37*
G36*
X38052Y91850D02*
X38022D01*
X38007D01*
X37909Y91843D01*
X37819Y91828D01*
X37743Y91805D01*
X37683Y91783D01*
X37631Y91760D01*
X37586Y91738D01*
X37563Y91722D01*
X37556Y91715D01*
X37495Y91662D01*
X37435Y91595D01*
X37390Y91527D01*
X37360Y91467D01*
X37330Y91407D01*
X37307Y91362D01*
X37300Y91332D01*
X37292Y91316D01*
X37277Y91234D01*
X37262Y91129D01*
X37255Y91023D01*
X37247Y90918D01*
X37240Y90820D01*
Y89542D01*
X38804D01*
Y90775D01*
X38789Y90941D01*
X38781Y91068D01*
X38766Y91181D01*
X38751Y91264D01*
X38744Y91316D01*
X38728Y91354D01*
Y91362D01*
X38698Y91444D01*
X38653Y91519D01*
X38608Y91580D01*
X38563Y91632D01*
X38525Y91670D01*
X38488Y91700D01*
X38465Y91715D01*
X38458Y91722D01*
X38383Y91768D01*
X38307Y91798D01*
X38232Y91820D01*
X38157Y91835D01*
X38097Y91843D01*
X38052Y91850D01*
D02*
G37*
G36*
X35774Y92076D02*
X35744D01*
X35729D01*
X35638Y92068D01*
X35548Y92061D01*
X35473Y92046D01*
X35413Y92023D01*
X35360Y92001D01*
X35315Y91986D01*
X35292Y91978D01*
X35285Y91971D01*
X35217Y91925D01*
X35157Y91888D01*
X35112Y91835D01*
X35067Y91798D01*
X35037Y91760D01*
X35014Y91730D01*
X34999Y91707D01*
X34992Y91700D01*
X34932Y91572D01*
X34887Y91444D01*
X34871Y91392D01*
X34864Y91347D01*
X34856Y91316D01*
Y91309D01*
X34849Y91249D01*
X34841Y91181D01*
X34834Y91023D01*
Y89542D01*
X36623D01*
Y90911D01*
X36608Y91068D01*
X36593Y91196D01*
X36578Y91301D01*
X36563Y91384D01*
X36548Y91452D01*
X36541Y91482D01*
X36533Y91497D01*
X36495Y91595D01*
X36450Y91677D01*
X36398Y91753D01*
X36345Y91813D01*
X36300Y91858D01*
X36262Y91888D01*
X36232Y91910D01*
X36225Y91918D01*
X36142Y91971D01*
X36059Y92008D01*
X35977Y92038D01*
X35902Y92053D01*
X35834Y92068D01*
X35774Y92076D01*
D02*
G37*
G36*
X33789Y112486D02*
X32556D01*
Y108516D01*
X33759D01*
X33857Y108524D01*
X33955D01*
X34045Y108532D01*
X34195Y108554D01*
X34316Y108569D01*
X34413Y108592D01*
X34481Y108614D01*
X34519Y108622D01*
X34534Y108629D01*
X34669Y108697D01*
X34797Y108780D01*
X34910Y108877D01*
X35007Y108975D01*
X35082Y109065D01*
X35143Y109140D01*
X35158Y109171D01*
X35173Y109193D01*
X35188Y109208D01*
Y109216D01*
X35233Y109298D01*
X35278Y109396D01*
X35346Y109592D01*
X35391Y109802D01*
X35428Y110005D01*
X35436Y110095D01*
X35443Y110185D01*
X35451Y110261D01*
Y110328D01*
X35459Y110388D01*
Y110426D01*
Y110456D01*
Y110464D01*
X35451Y110674D01*
X35436Y110870D01*
X35413Y111043D01*
X35391Y111193D01*
X35376Y111253D01*
X35361Y111306D01*
X35346Y111358D01*
X35338Y111396D01*
X35331Y111426D01*
X35323Y111449D01*
X35316Y111464D01*
Y111471D01*
X35263Y111614D01*
X35203Y111742D01*
X35135Y111855D01*
X35075Y111952D01*
X35022Y112028D01*
X34977Y112080D01*
X34947Y112110D01*
X34940Y112125D01*
X34864Y112185D01*
X34789Y112238D01*
X34714Y112283D01*
X34639Y112328D01*
X34571Y112358D01*
X34519Y112381D01*
X34481Y112388D01*
X34466Y112396D01*
X34353Y112426D01*
X34218Y112449D01*
X34083Y112464D01*
X33955Y112471D01*
X33842Y112479D01*
X33789Y112486D01*
D02*
G37*
G36*
X38503Y66807D02*
X36864D01*
X38503Y64476D01*
Y66807D01*
D02*
G37*
%LPD*%
D11*
X40000Y35000D02*
G03*
X40000Y35000I-1250J0D01*
G01*
D13*
X59940Y81147D02*
Y98647D01*
X44320Y80920D02*
Y98420D01*
X52210Y103990D02*
X69710D01*
X52210Y116990D02*
X77840D01*
D14*
X46806Y22161D02*
X67306D01*
X46806Y11161D02*
X67556D01*
X46806Y23861D02*
X67556D01*
X46806Y34861D02*
X67306D01*
D15*
X58056Y14661D02*
Y18661D01*
X56056Y14661D02*
Y18661D01*
X55056Y16661D02*
X56056D01*
X58056D02*
X59056D01*
X58056Y29361D02*
X59056D01*
X55056D02*
X56056D01*
Y27361D02*
Y31361D01*
X58056Y27361D02*
Y31361D01*
D16*
X-80181Y-125077D02*
X-79794Y-123916D01*
Y-126238D01*
X-80181Y-125077D01*
X-80954Y-125851D01*
X-82115Y-126238D01*
X-82889D01*
X-84050Y-125851D01*
X-84824Y-125077D01*
X-85211Y-124303D01*
X-85598Y-123142D01*
Y-121208D01*
X-85211Y-120047D01*
X-84824Y-119273D01*
X-84050Y-118499D01*
X-82889Y-118112D01*
X-82115D01*
X-80954Y-118499D01*
X-80181Y-119273D01*
X-82889Y-126238D02*
X-83663Y-125851D01*
X-84437Y-125077D01*
X-84824Y-124303D01*
X-85211Y-123142D01*
Y-121208D01*
X-84824Y-120047D01*
X-84437Y-119273D01*
X-83663Y-118499D01*
X-82889Y-118112D01*
X-80181Y-121208D02*
Y-118112D01*
X-79794Y-121208D02*
Y-118112D01*
X-81341Y-121208D02*
X-78633D01*
X-76427Y-126238D02*
Y-118112D01*
X-76040Y-126238D02*
X-71396Y-118886D01*
X-76040Y-125464D02*
X-71396Y-118112D01*
Y-126238D02*
Y-118112D01*
X-77588Y-126238D02*
X-76040D01*
X-72557D02*
X-70236D01*
X-77588Y-118112D02*
X-75266D01*
X-68068Y-126238D02*
Y-118112D01*
X-67682Y-126238D02*
Y-118112D01*
X-69229Y-126238D02*
X-65360D01*
X-64199Y-125851D01*
X-63425Y-125077D01*
X-63038Y-124303D01*
X-62651Y-123142D01*
Y-121208D01*
X-63038Y-120047D01*
X-63425Y-119273D01*
X-64199Y-118499D01*
X-65360Y-118112D01*
X-69229D01*
X-65360Y-126238D02*
X-64586Y-125851D01*
X-63812Y-125077D01*
X-63425Y-124303D01*
X-63038Y-123142D01*
Y-121208D01*
X-63425Y-120047D01*
X-63812Y-119273D01*
X-64586Y-118499D01*
X-65360Y-118112D01*
X72220Y-125077D02*
X72607Y-123916D01*
Y-126238D01*
X72220Y-125077D01*
X71446Y-125851D01*
X70285Y-126238D01*
X69511D01*
X68350Y-125851D01*
X67576Y-125077D01*
X67189Y-124303D01*
X66802Y-123142D01*
Y-121208D01*
X67189Y-120047D01*
X67576Y-119273D01*
X68350Y-118499D01*
X69511Y-118112D01*
X70285D01*
X71446Y-118499D01*
X72220Y-119273D01*
X69511Y-126238D02*
X68737Y-125851D01*
X67963Y-125077D01*
X67576Y-124303D01*
X67189Y-123142D01*
Y-121208D01*
X67576Y-120047D01*
X67963Y-119273D01*
X68737Y-118499D01*
X69511Y-118112D01*
X72220Y-121208D02*
Y-118112D01*
X72607Y-121208D02*
Y-118112D01*
X71059Y-121208D02*
X73767D01*
X75973Y-126238D02*
Y-118112D01*
X76360Y-126238D02*
X81004Y-118886D01*
X76360Y-125464D02*
X81004Y-118112D01*
Y-126238D02*
Y-118112D01*
X74812Y-126238D02*
X76360D01*
X79843D02*
X82164D01*
X74812Y-118112D02*
X77134D01*
X84332Y-126238D02*
Y-118112D01*
X84718Y-126238D02*
Y-118112D01*
X83171Y-126238D02*
X87040D01*
X88201Y-125851D01*
X88975Y-125077D01*
X89362Y-124303D01*
X89749Y-123142D01*
Y-121208D01*
X89362Y-120047D01*
X88975Y-119273D01*
X88201Y-118499D01*
X87040Y-118112D01*
X83171D01*
X87040Y-126238D02*
X87814Y-125851D01*
X88588Y-125077D01*
X88975Y-124303D01*
X89362Y-123142D01*
Y-121208D01*
X88975Y-120047D01*
X88588Y-119273D01*
X87814Y-118499D01*
X87040Y-118112D01*
X59861Y140317D02*
X59474Y139156D01*
Y141478D01*
X59861Y140317D01*
X60634Y141091D01*
X61795Y141478D01*
X62569D01*
X63730Y141091D01*
X64504Y140317D01*
X64891Y139543D01*
X65278Y138382D01*
Y136447D01*
X64891Y135287D01*
X64504Y134513D01*
X63730Y133739D01*
X62569Y133352D01*
X61795D01*
X60634Y133739D01*
X59861Y134513D01*
X62569Y141478D02*
X63343Y141091D01*
X64117Y140317D01*
X64504Y139543D01*
X64891Y138382D01*
Y136447D01*
X64504Y135287D01*
X64117Y134513D01*
X63343Y133739D01*
X62569Y133352D01*
X59861Y136447D02*
Y133352D01*
X59474Y136447D02*
Y133352D01*
X61021Y136447D02*
X58313D01*
X56107Y141478D02*
Y133352D01*
X55720Y141478D02*
X51076Y134126D01*
X55720Y140704D02*
X51076Y133352D01*
Y141478D02*
Y133352D01*
X57268Y141478D02*
X55720D01*
X52237D02*
X49915D01*
X57268Y133352D02*
X54946D01*
X47748Y141478D02*
Y133352D01*
X47362Y141478D02*
Y133352D01*
X48909Y141478D02*
X45040D01*
X43879Y141091D01*
X43105Y140317D01*
X42718Y139543D01*
X42331Y138382D01*
Y136447D01*
X42718Y135287D01*
X43105Y134513D01*
X43879Y133739D01*
X45040Y133352D01*
X48909D01*
X45040Y141478D02*
X44266Y141091D01*
X43492Y140317D01*
X43105Y139543D01*
X42718Y138382D01*
Y136447D01*
X43105Y135287D01*
X43492Y134513D01*
X44266Y133739D01*
X45040Y133352D01*
X-69858Y122582D02*
X-70245Y121421D01*
Y123743D01*
X-69858Y122582D01*
X-69084Y123356D01*
X-67923Y123743D01*
X-67150D01*
X-65989Y123356D01*
X-65215Y122582D01*
X-64828Y121808D01*
X-64441Y120647D01*
Y118712D01*
X-64828Y117551D01*
X-65215Y116777D01*
X-65989Y116004D01*
X-67150Y115617D01*
X-67923D01*
X-69084Y116004D01*
X-69858Y116777D01*
X-67150Y123743D02*
X-66376Y123356D01*
X-65602Y122582D01*
X-65215Y121808D01*
X-64828Y120647D01*
Y118712D01*
X-65215Y117551D01*
X-65602Y116777D01*
X-66376Y116004D01*
X-67150Y115617D01*
X-69858Y118712D02*
Y115617D01*
X-70245Y118712D02*
Y115617D01*
X-68697Y118712D02*
X-71406D01*
X-73612Y123743D02*
Y115617D01*
X-73999Y123743D02*
X-78642Y116390D01*
X-73999Y122969D02*
X-78642Y115617D01*
Y123743D02*
Y115617D01*
X-72451Y123743D02*
X-73999D01*
X-77481D02*
X-79803D01*
X-72451Y115617D02*
X-74773D01*
X-81970Y123743D02*
Y115617D01*
X-82357Y123743D02*
Y115617D01*
X-80809Y123743D02*
X-84679D01*
X-85840Y123356D01*
X-86614Y122582D01*
X-87001Y121808D01*
X-87388Y120647D01*
Y118712D01*
X-87001Y117551D01*
X-86614Y116777D01*
X-85840Y116004D01*
X-84679Y115617D01*
X-80809D01*
X-84679Y123743D02*
X-85453Y123356D01*
X-86227Y122582D01*
X-86614Y121808D01*
X-87001Y120647D01*
Y118712D01*
X-86614Y117551D01*
X-86227Y116777D01*
X-85453Y116004D01*
X-84679Y115617D01*
X144163Y3981D02*
X145324Y3593D01*
X143002D01*
X144163Y3981D01*
X143389Y4754D01*
X143002Y5915D01*
Y6689D01*
X143389Y7850D01*
X144163Y8624D01*
X144937Y9011D01*
X146098Y9398D01*
X148033D01*
X149193Y9011D01*
X149967Y8624D01*
X150741Y7850D01*
X151128Y6689D01*
Y5915D01*
X150741Y4754D01*
X149967Y3981D01*
X143002Y6689D02*
X143389Y7463D01*
X144163Y8237D01*
X144937Y8624D01*
X146098Y9011D01*
X148033D01*
X149193Y8624D01*
X149967Y8237D01*
X150741Y7463D01*
X151128Y6689D01*
X148033Y3981D02*
X151128D01*
X148033Y3593D02*
X151128D01*
X148033Y5141D02*
Y2433D01*
X143002Y227D02*
X151128D01*
X143002Y-160D02*
X150354Y-4804D01*
X143776Y-160D02*
X151128Y-4804D01*
X143002D02*
X151128D01*
X143002Y1388D02*
Y-160D01*
Y-3643D02*
Y-5964D01*
X151128Y1388D02*
Y-934D01*
X143002Y-8131D02*
X151128D01*
X143002Y-8518D02*
X151128D01*
X143002Y-6971D02*
Y-10840D01*
X143389Y-12001D01*
X144163Y-12775D01*
X144937Y-13162D01*
X146098Y-13549D01*
X148033D01*
X149193Y-13162D01*
X149967Y-12775D01*
X150741Y-12001D01*
X151128Y-10840D01*
Y-6971D01*
X143002Y-10840D02*
X143389Y-11614D01*
X144163Y-12388D01*
X144937Y-12775D01*
X146098Y-13162D01*
X148033D01*
X149193Y-12775D01*
X149967Y-12388D01*
X150741Y-11614D01*
X151128Y-10840D01*
X-150477Y9061D02*
X-149316Y8673D01*
X-151638D01*
X-150477Y9061D01*
X-151251Y9834D01*
X-151638Y10995D01*
Y11769D01*
X-151251Y12930D01*
X-150477Y13704D01*
X-149703Y14091D01*
X-148542Y14478D01*
X-146608D01*
X-145447Y14091D01*
X-144673Y13704D01*
X-143899Y12930D01*
X-143512Y11769D01*
Y10995D01*
X-143899Y9834D01*
X-144673Y9061D01*
X-151638Y11769D02*
X-151251Y12543D01*
X-150477Y13317D01*
X-149703Y13704D01*
X-148542Y14091D01*
X-146608D01*
X-145447Y13704D01*
X-144673Y13317D01*
X-143899Y12543D01*
X-143512Y11769D01*
X-146608Y9061D02*
X-143512D01*
X-146608Y8673D02*
X-143512D01*
X-146608Y10221D02*
Y7513D01*
X-151638Y5307D02*
X-143512D01*
X-151638Y4920D02*
X-144286Y276D01*
X-150864Y4920D02*
X-143512Y276D01*
X-151638D02*
X-143512D01*
X-151638Y6468D02*
Y4920D01*
Y1437D02*
Y-884D01*
X-143512Y6468D02*
Y4146D01*
X-151638Y-3052D02*
X-143512D01*
X-151638Y-3438D02*
X-143512D01*
X-151638Y-1891D02*
Y-5760D01*
X-151251Y-6921D01*
X-150477Y-7695D01*
X-149703Y-8082D01*
X-148542Y-8469D01*
X-146608D01*
X-145447Y-8082D01*
X-144673Y-7695D01*
X-143899Y-6921D01*
X-143512Y-5760D01*
Y-1891D01*
X-151638Y-5760D02*
X-151251Y-6534D01*
X-150477Y-7308D01*
X-149703Y-7695D01*
X-148542Y-8082D01*
X-146608D01*
X-145447Y-7695D01*
X-144673Y-7308D01*
X-143899Y-6534D01*
X-143512Y-5760D01*
D17*
X106684Y48260D02*
X124460D01*
X106684Y36409D02*
X124460D01*
X115149Y48260D02*
Y36409D01*
X106684Y26421D02*
X107530Y28960D01*
X110070Y30653D01*
X114302Y31500D01*
X116842D01*
X121074Y30653D01*
X123614Y28960D01*
X124460Y26421D01*
Y24728D01*
X123614Y22188D01*
X121074Y20495D01*
X116842Y19649D01*
X114302D01*
X110070Y20495D01*
X107530Y22188D01*
X106684Y24728D01*
Y26421D01*
X110070Y15670D02*
X109223Y13977D01*
X106684Y11438D01*
X124460D01*
X106684Y2634D02*
X124460D01*
X106684D02*
Y-4984D01*
X107530Y-7523D01*
X108377Y-8370D01*
X110070Y-9216D01*
X111763D01*
X113456Y-8370D01*
X114302Y-7523D01*
X115149Y-4984D01*
Y2634D01*
Y-3291D02*
X124460Y-9216D01*
X106684Y-18274D02*
X107530Y-15734D01*
X110070Y-14041D01*
X114302Y-13195D01*
X116842D01*
X121074Y-14041D01*
X123614Y-15734D01*
X124460Y-18274D01*
Y-19967D01*
X123614Y-22506D01*
X121074Y-24199D01*
X116842Y-25046D01*
X114302D01*
X110070Y-24199D01*
X107530Y-22506D01*
X106684Y-19967D01*
Y-18274D01*
Y-34103D02*
X107530Y-31564D01*
X110070Y-29871D01*
X114302Y-29024D01*
X116842D01*
X121074Y-29871D01*
X123614Y-31564D01*
X124460Y-34103D01*
Y-35796D01*
X123614Y-38335D01*
X121074Y-40028D01*
X116842Y-40875D01*
X114302D01*
X110070Y-40028D01*
X107530Y-38335D01*
X106684Y-35796D01*
Y-34103D01*
X16990Y117232D02*
X8718D01*
X5961Y118151D01*
X5042Y119070D01*
X4123Y120908D01*
Y123665D01*
X5042Y125503D01*
X5961Y126422D01*
X8718Y127341D01*
X16990D01*
Y108041D01*
X-11225Y124584D02*
X-10306Y126422D01*
X-7549Y127341D01*
X-5711D01*
X-2954Y126422D01*
X-1116Y123665D01*
X-196Y119070D01*
Y114474D01*
X-1116Y110798D01*
X-2954Y108960D01*
X-5711Y108041D01*
X-6630D01*
X-9387Y108960D01*
X-11225Y110798D01*
X-12144Y113555D01*
Y114474D01*
X-11225Y117232D01*
X-9387Y119070D01*
X-6630Y119989D01*
X-5711D01*
X-2954Y119070D01*
X-1116Y117232D01*
X-196Y114474D01*
X18254Y-116652D02*
X9982D01*
X7225Y-115732D01*
X6306Y-114813D01*
X5387Y-112975D01*
Y-110218D01*
X6306Y-108380D01*
X7225Y-107461D01*
X9982Y-106542D01*
X18254D01*
Y-125842D01*
X-771Y-106542D02*
X-10880D01*
X-5366Y-113895D01*
X-8123D01*
X-9961Y-114813D01*
X-10880Y-115732D01*
X-11799Y-118490D01*
Y-120328D01*
X-10880Y-123085D01*
X-9042Y-124923D01*
X-6285Y-125842D01*
X-3528D01*
X-771Y-124923D01*
X148Y-124004D01*
X1068Y-122166D01*
X-68580Y-73609D02*
X-76851D01*
X-79608Y-72690D01*
X-80527Y-71771D01*
X-81447Y-69933D01*
Y-67176D01*
X-80527Y-65338D01*
X-79608Y-64419D01*
X-76851Y-63500D01*
X-68580D01*
Y-82800D01*
X-94957Y-63500D02*
X-85766Y-76367D01*
X-99552D01*
X-94957Y-63500D02*
Y-82800D01*
X99060Y-73609D02*
X90789D01*
X88032Y-72690D01*
X87113Y-71771D01*
X86193Y-69933D01*
Y-67176D01*
X87113Y-65338D01*
X88032Y-64419D01*
X90789Y-63500D01*
X99060D01*
Y-82800D01*
X80955Y-68095D02*
Y-67176D01*
X80036Y-65338D01*
X79117Y-64419D01*
X77279Y-63500D01*
X73602D01*
X71764Y-64419D01*
X70845Y-65338D01*
X69926Y-67176D01*
Y-69014D01*
X70845Y-70852D01*
X72684Y-73609D01*
X81874Y-82800D01*
X69007D01*
X60093Y-63500D02*
Y-74528D01*
X64688Y-66257D02*
X55497Y-71771D01*
Y-66257D02*
X64688Y-71771D01*
X104140Y68630D02*
X95869D01*
X93111Y69550D01*
X92192Y70469D01*
X91273Y72307D01*
Y75064D01*
X92192Y76902D01*
X93111Y77821D01*
X95869Y78740D01*
X104140D01*
Y59440D01*
X86954Y75064D02*
X85116Y75983D01*
X82359Y78740D01*
Y59440D01*
X-78740Y68630D02*
X-87011D01*
X-89768Y69550D01*
X-90688Y70469D01*
X-91607Y72307D01*
Y75064D01*
X-90688Y76902D01*
X-89768Y77821D01*
X-87011Y78740D01*
X-78740D01*
Y59440D01*
X-106955Y78740D02*
X-97764D01*
X-96845Y70469D01*
X-97764Y71388D01*
X-100521Y72307D01*
X-103278D01*
X-106035Y71388D01*
X-107874Y69550D01*
X-108793Y66792D01*
Y64954D01*
X-107874Y62197D01*
X-106035Y60359D01*
X-103278Y59440D01*
X-100521D01*
X-97764Y60359D01*
X-96845Y61278D01*
X-95926Y63116D01*
D51*
X57960Y41300D02*
X77960D01*
Y60300D01*
X43960D02*
X77960D01*
X43960Y41300D02*
Y60300D01*
Y41300D02*
X57960D01*
X43960Y76810D02*
X63960D01*
X43960Y57810D02*
Y76810D01*
Y57810D02*
X77960D01*
Y76810D01*
X63960D02*
X77960D01*
M02*
